<?xml version="1.0" standalone="no"?>
<!DOCTYPE svg PUBLIC "-//W3C//DTD SVG 20010904//EN"
 "http://www.w3.org/TR/2001/REC-SVG-20010904/DTD/svg10.dtd">
<svg version="1.0" xmlns="http://www.w3.org/2000/svg"
 width="2500.000000pt" height="2500.000000pt" viewBox="0 0 2500.000000 2500.000000"
 preserveAspectRatio="xMidYMid meet">

<g transform="translate(0.000000,2500.000000) scale(0.100000,-0.100000)"
fill="#000000" stroke="none">
<path d="M5867 20209 c-4 -13 -4 -25 -2 -28 3 -2 5 0 5 6 0 6 39 9 105 8 58
-2 108 1 111 6 3 5 -3 9 -13 10 -10 1 -30 2 -45 3 -15 2 -25 -1 -22 -6 3 -4
-4 -8 -16 -8 -14 0 -19 4 -14 13 6 10 4 10 -7 0 -15 -14 -33 -18 -25 -5 3 5
-9 8 -27 7 -18 -1 -35 2 -38 7 -3 6 -9 -1 -12 -13z"/>
<path d="M5835 20190 c-8 -37 5 -127 16 -109 4 7 6 16 3 20 -11 18 -15 87 -5
94 13 8 14 25 2 25 -5 0 -12 -13 -16 -30z"/>
<path d="M6596 20197 c3 -10 9 -15 12 -12 3 3 0 11 -7 18 -10 9 -11 8 -5 -6z"/>
<path d="M6730 20200 c14 -4 34 -8 45 -8 l20 -1 -20 9 c-11 5 -31 8 -45 8
l-25 0 25 -8z"/>
<path d="M6330 20180 c-20 -6 -21 -8 -5 -8 11 -1 38 3 60 7 l40 9 -35 0 c-19
0 -46 -4 -60 -8z"/>
<path d="M6466 20174 c-4 -10 -4 -15 0 -11 4 4 12 3 18 -2 6 -5 29 -12 51 -16
37 -7 39 -6 20 8 -11 8 -32 17 -45 18 -14 2 -28 8 -31 12 -3 5 -9 1 -13 -9z"/>
<path d="M6620 20186 c0 -2 7 -7 16 -10 8 -3 12 -2 9 4 -6 10 -25 14 -25 6z"/>
<path d="M6818 20183 c7 -3 16 -2 19 1 4 3 -2 6 -13 5 -11 0 -14 -3 -6 -6z"/>
<path d="M6873 20173 c9 -3 15 -8 13 -12 -3 -4 8 -5 24 -3 17 2 48 -3 70 -12
43 -17 91 -22 75 -8 -12 10 -104 31 -160 36 -22 2 -32 1 -22 -1z"/>
<path d="M5865 20120 c4 -14 8 -47 10 -75 6 -84 7 -86 168 -365 202 -350 432
-664 895 -1220 130 -157 523 -547 700 -698 42 -36 103 -89 135 -119 32 -29 83
-67 113 -84 59 -34 66 -40 32 -33 -13 3 -93 12 -178 20 -149 14 -489 55 -597
73 -29 4 -53 8 -54 7 0 -1 -2 -9 -4 -19 -5 -27 30 -44 217 -104 151 -48 192
-57 323 -70 169 -16 250 -14 345 10 36 9 96 23 133 31 73 17 237 89 237 104 0
6 -26 2 -57 -8 -32 -10 -93 -23 -135 -30 l-78 -13 -36 28 c-20 16 -74 62 -118
104 -45 42 -161 146 -257 231 -282 250 -680 656 -864 880 -16 20 -75 90 -130
155 -124 147 -165 199 -270 350 -47 66 -115 163 -153 215 -212 297 -284 418
-344 580 -21 58 -47 96 -33 50z"/>
<path d="M6878 20133 c7 -3 16 -2 19 1 4 3 -2 6 -13 5 -11 0 -14 -3 -6 -6z"/>
<path d="M7175 20106 c17 -7 66 -22 110 -31 44 -9 89 -21 100 -25 39 -17 65
-21 65 -12 0 5 -42 19 -92 31 -51 12 -104 26 -118 31 -14 5 -41 11 -60 14
l-35 6 30 -14z"/>
<path d="M5787 20025 c-28 -157 -30 -184 -16 -201 15 -19 15 -160 -1 -179 -6
-7 -8 -58 -5 -131 4 -107 3 -117 -11 -99 -9 12 -11 21 -4 23 5 2 10 11 10 20
0 15 -2 15 -11 2 -9 -12 -10 -11 -6 8 3 12 1 20 -4 16 -5 -3 -10 1 -11 8 0 7
-4 -16 -8 -52 -7 -73 -5 -84 9 -49 7 18 9 10 7 -36 -2 -33 1 -68 6 -78 6 -12
5 -17 -4 -15 -7 2 -13 -5 -13 -15 0 -10 -7 -22 -15 -27 -8 -5 -10 -10 -5 -10
6 0 16 -9 23 -21 9 -14 9 -19 2 -14 -7 5 -11 0 -10 -11 5 -48 0 -85 -12 -78
-6 4 -8 3 -4 -4 3 -6 2 -13 -4 -17 -7 -4 -9 -81 -7 -220 2 -168 6 -217 17
-231 8 -10 10 -15 4 -11 -13 7 -12 -42 1 -63 4 -7 2 -16 -6 -21 -11 -7 -11 -9
3 -9 9 0 20 -5 24 -12 5 -7 2 -9 -7 -6 -11 4 -14 -3 -11 -36 2 -22 6 -48 9
-56 4 -8 8 -35 9 -60 2 -25 5 -60 7 -78 3 -18 1 -35 -4 -38 -5 -3 -9 -13 -9
-22 0 -15 2 -15 10 -2 6 9 10 10 10 3 0 -7 -7 -16 -16 -21 -15 -8 -15 -10 0
-15 11 -5 15 -3 10 5 -4 6 -3 8 4 4 5 -3 10 -23 10 -44 0 -67 2 -83 10 -78 5
3 9 -1 9 -9 0 -8 -4 -12 -9 -9 -4 3 -3 -6 3 -20 7 -14 16 -23 20 -20 5 3 6 -2
3 -11 -6 -14 -8 -14 -20 2 -12 17 -13 16 -9 -6 3 -14 10 -29 16 -35 9 -8 10
-7 4 4 -6 12 -5 13 5 3 10 -10 11 -15 1 -27 -10 -12 -9 -18 8 -33 12 -9 21
-25 21 -33 0 -9 4 -20 9 -26 5 -5 5 -29 1 -54 -7 -44 -11 -37 -14 27 0 17 -4
34 -8 38 -4 4 -4 14 -1 22 5 13 3 13 -15 2 l-22 -14 22 -8 c14 -5 18 -11 12
-15 -13 -8 -15 -42 -4 -57 4 -5 8 -30 9 -54 0 -25 6 -48 12 -52 7 -4 8 -9 1
-13 -6 -3 -8 -15 -5 -26 3 -11 0 -33 -5 -49 -7 -19 -7 -33 -1 -36 5 -4 9 4 9
17 0 33 15 55 23 33 4 -10 3 -14 -4 -9 -12 7 -6 -62 6 -74 4 -4 6 7 3 24 -3
24 -1 31 9 27 8 -3 12 -12 9 -20 -3 -8 -1 -11 4 -8 6 4 9 -13 9 -42 -2 -75 0
-95 9 -89 4 2 8 -18 9 -45 1 -57 -3 -60 -12 -9 -3 19 -8 42 -10 50 -2 8 -7 31
-10 50 -3 19 -11 40 -16 45 -7 6 -7 0 0 -17 8 -21 7 -28 -2 -28 -8 0 -8 -3 2
-9 8 -5 11 -16 8 -24 -3 -8 -2 -18 3 -23 11 -11 23 -69 23 -107 -1 -28 0 -28
14 -7 8 11 18 18 23 15 13 -8 -1 -45 -16 -45 -8 0 -14 -4 -14 -10 0 -5 7 -7
15 -4 18 7 19 0 3 -26 -10 -15 -10 -22 -1 -31 9 -9 11 -7 6 10 -3 11 -1 21 4
21 10 0 11 -29 1 -45 -7 -11 -12 -64 -8 -80 2 -5 4 -14 5 -20 1 -5 5 -18 9
-27 5 -10 6 -23 3 -30 -3 -7 -6 -3 -6 9 -1 12 -6 25 -12 29 -7 4 -10 -3 -9
-17 1 -13 2 -33 1 -44 -1 -17 -3 -18 -12 -5 -10 13 -10 13 -6 0 2 -9 12 -50
22 -93 9 -42 21 -74 26 -71 5 3 9 12 9 20 0 8 5 14 10 14 6 0 10 -4 10 -9 0
-5 3 -18 6 -28 5 -15 4 -16 -6 -3 -9 12 -10 5 -5 -30 4 -33 3 -41 -4 -30 -6 8
-11 24 -11 34 0 11 -3 17 -6 13 -7 -6 24 -154 38 -181 7 -13 12 -15 17 -7 4 7
8 -4 9 -24 1 -20 -3 -33 -8 -30 -5 3 -4 -11 1 -32 27 -107 32 -122 39 -118 5
3 6 14 3 25 -3 11 0 20 6 20 6 0 10 -3 10 -7 -4 -24 3 -53 14 -65 14 -14 18
-80 4 -71 -4 2 -6 10 -4 16 5 14 -22 71 -30 63 -5 -5 72 -285 87 -316 4 -8 18
-49 31 -90 12 -41 25 -67 27 -57 2 9 7 17 12 17 5 0 4 -13 -1 -29 -9 -24 -2
-52 39 -172 53 -155 111 -309 117 -309 1 0 6 7 9 16 3 8 2 13 -2 10 -7 -4 -72
158 -72 181 0 6 -7 24 -16 42 -9 17 -13 39 -10 47 3 8 2 13 -3 10 -11 -7 -21
18 -21 54 0 16 -4 30 -10 32 -5 2 -11 12 -13 23 -1 11 -7 27 -12 35 -7 13 -6
13 7 2 13 -10 17 -10 22 0 3 7 3 -1 0 -19 -4 -24 -1 -34 15 -45 12 -8 18 -18
13 -23 -4 -4 2 -5 12 -1 15 5 17 4 7 -7 -9 -11 -7 -17 6 -28 17 -13 17 -13 3
6 -10 15 -10 17 0 8 7 -7 15 -25 16 -40 2 -21 1 -24 -6 -13 -8 12 -10 12 -10
1 0 -7 9 -29 21 -47 11 -19 16 -34 10 -34 -6 0 -11 -5 -11 -11 0 -5 5 -7 11
-3 7 4 9 0 5 -14 -4 -11 -2 -23 4 -27 6 -3 8 -11 5 -16 -4 -5 8 -29 25 -52 24
-34 30 -50 24 -71 -3 -14 -10 -29 -15 -31 -11 -7 5 -54 90 -274 39 -101 71
-196 71 -212 0 -15 -11 -63 -24 -106 -26 -82 -64 -228 -116 -448 -60 -252 -58
-245 -46 -245 7 0 7 -3 1 -8 -6 -4 -18 -35 -27 -70 -15 -59 -15 -63 0 -57 9 3
13 3 9 -1 -4 -4 -2 -13 4 -21 8 -8 8 -13 1 -13 -6 0 -12 6 -15 13 -8 24 -18
-2 -37 -94 -28 -141 -58 -312 -58 -329 1 -8 -2 -30 -6 -47 -4 -18 -5 -33 -3
-33 3 0 30 37 60 83 118 177 147 166 84 -34 -20 -63 -37 -120 -37 -125 1 -15
35 67 50 118 8 26 17 45 21 42 4 -2 6 10 5 26 -1 17 1 30 4 30 3 0 7 10 7 22
1 13 7 24 13 26 5 2 10 21 10 42 0 20 7 57 15 80 25 70 16 79 -16 15 -16 -33
-41 -71 -55 -83 l-25 -24 6 39 c10 58 22 118 51 238 15 61 27 129 28 151 0 23
3 40 6 39 6 -4 13 23 79 290 44 181 91 356 97 367 3 4 13 40 24 80 36 139 102
335 255 763 25 72 50 141 54 155 9 26 70 174 101 245 10 22 37 85 60 140 24
55 59 134 79 175 20 41 36 80 36 85 0 6 3 12 6 15 3 3 27 48 53 100 67 132
101 184 133 200 58 29 134 83 144 102 9 17 8 18 -8 10 -10 -5 -29 -6 -42 -3
-36 10 -174 -6 -265 -29 -78 -21 -367 -111 -418 -132 -35 -13 -35 -26 -2 -38
55 -21 181 -6 374 46 154 41 151 42 104 -5 -28 -29 -76 -114 -172 -305 -184
-368 -302 -644 -437 -1021 -31 -88 -63 -173 -70 -190 -8 -16 -15 -38 -17 -48
-6 -36 -21 -20 -50 53 -69 181 -263 722 -290 810 -95 318 -203 730 -249 947
-13 63 -27 109 -33 106 -5 -3 -6 -1 -2 6 4 6 -2 57 -13 114 -26 124 -26 124
-41 217 -7 41 -22 134 -35 205 -13 72 -26 153 -30 180 -15 115 -36 307 -45
400 -6 55 -12 114 -14 130 -3 17 -8 89 -11 160 -4 72 -9 141 -12 155 -3 14 -6
61 -8 105 -2 44 -4 85 -5 90 -1 6 -2 12 -1 15 1 3 4 79 6 170 3 91 7 190 9
220 3 30 8 111 11 180 9 182 25 376 36 445 16 89 20 185 9 185 -5 0 -13 15
-18 33 -8 29 -10 24 -25 -58z m15 -47 c-2 -21 -8 -36 -12 -33 -7 5 -5 28 6 64
8 24 11 7 6 -31z m4 -72 c1 -7 -4 -13 -12 -13 -9 0 -11 4 -4 12 5 7 8 15 5 18
-3 4 -2 5 2 2 4 -3 8 -11 9 -19z m-29 -68 c-3 -7 -5 -2 -5 12 0 14 2 19 5 13
2 -7 2 -19 0 -25z m-40 -766 c-2 -32 -7 -64 -11 -70 -4 -7 -2 -12 3 -12 6 0
11 -7 11 -15 0 -8 -5 -15 -12 -15 -9 0 -9 -3 0 -12 13 -13 -1 -38 -22 -38 -6
0 -3 5 7 11 10 6 14 15 10 22 -4 6 -7 23 -7 37 0 14 -4 28 -10 32 -7 5 -7 8 2
8 6 0 12 7 12 15 0 8 -5 15 -11 15 -6 0 -3 7 5 16 9 8 16 26 16 40 0 13 2 24
5 24 3 0 4 -26 2 -58z m-4 -356 c3 3 3 -4 0 -15 -3 -12 -9 -24 -14 -27 -5 -3
-6 2 -3 11 4 8 0 23 -7 33 -12 15 -12 16 2 5 9 -7 18 -10 22 -7z m-4 -72 c-14
-13 -16 -13 -16 0 0 8 4 13 9 10 4 -3 8 0 8 7 0 7 3 9 7 5 4 -3 0 -13 -8 -22z
m27 -19 c2 -24 -6 -32 -19 -19 -5 6 9 44 16 44 1 0 3 -11 3 -25z m-3 -44 c-4
-3 -9 -17 -11 -31 -2 -20 -1 -22 8 -10 9 12 11 12 8 1 -3 -8 -10 -17 -16 -19
-8 -2 -12 10 -12 37 0 33 3 39 16 34 9 -3 12 -9 7 -12z m174 -1453 c-3 -8 -6
-5 -6 6 -1 11 2 17 5 13 3 -3 4 -12 1 -19z m11 -43 c-3 -3 -9 2 -12 12 -6 14
-5 15 5 6 7 -7 10 -15 7 -18z m39 -90 c0 -8 -4 -15 -9 -15 -4 0 -8 7 -8 15 0
8 4 15 8 15 5 0 9 -7 9 -15z m-44 -97 c-2 -5 1 -8 7 -8 6 0 9 -4 6 -9 -4 -5 0
-12 6 -14 7 -3 9 -6 3 -6 -21 -1 -37 17 -45 52 -4 20 -5 39 -2 42 7 7 31 -47
25 -57z m14 47 c0 -8 -4 -12 -9 -9 -5 3 -6 10 -3 15 9 13 12 11 12 -6z m58
-24 c3 -5 2 -12 -3 -15 -5 -3 -9 1 -9 9 0 17 3 19 12 6z m15 -151 c0 -5 -2
-10 -4 -10 -3 0 -8 5 -11 10 -3 6 -1 10 4 10 6 0 11 -4 11 -10z m-43 -66 c-1
-37 -3 -42 -10 -26 -9 19 -3 72 8 72 2 0 3 -21 2 -46z m43 -193 c0 -11 3 -28
7 -38 3 -10 3 -15 -1 -12 -12 11 -25 69 -15 69 5 0 9 -9 9 -19z m83 -291 c-9
-10 -20 24 -15 44 6 19 7 18 12 -9 4 -16 5 -32 3 -35z m24 -95 c0 -8 -4 -12
-9 -9 -4 3 -8 9 -8 15 0 5 4 9 8 9 5 0 9 -7 9 -15z m20 -35 c-3 -11 -1 -20 4
-20 5 0 9 -10 9 -22 0 -19 2 -20 11 -8 8 12 9 8 6 -15 -4 -22 1 -37 16 -55 12
-13 15 -19 5 -12 -13 10 -17 10 -21 0 -3 -11 -25 48 -31 87 -1 6 -5 15 -9 22
-4 6 -4 18 -1 27 9 23 17 20 11 -4z m240 -677 c-4 -3 -1 -13 6 -21 9 -13 9
-14 0 -8 -16 9 -16 1 -3 -25 6 -10 7 -19 2 -19 -10 0 -32 67 -24 74 3 3 10 6
15 6 6 0 7 -3 4 -7z m26 -108 c-3 -9 -8 -14 -10 -11 -3 3 -2 9 2 15 9 16 15
13 8 -4z m25 -80 c-3 -3 -9 2 -12 12 -6 14 -5 15 5 6 7 -7 10 -15 7 -18z m55
-500 c4 -8 3 -16 -1 -19 -4 -3 -9 4 -9 15 -2 23 3 25 10 4z m-53 -239 c0 -3
-4 -8 -10 -11 -5 -3 -10 -1 -10 4 0 6 5 11 10 11 6 0 10 -2 10 -4z m-22 -137
c3 -12 2 -12 -6 0 -6 8 -15 10 -22 6 -9 -5 -11 -4 -6 4 10 15 28 10 34 -10z
m-14 -18 c3 -5 -1 -14 -8 -20 -12 -10 -14 -9 -11 6 2 10 4 19 4 21 2 5 10 2
15 -7z m46 -76 c0 -8 -9 -19 -19 -24 -17 -10 -18 -9 -7 14 12 28 26 33 26 10z
m-83 -37 c-3 -7 -5 -2 -5 12 0 14 2 19 5 13 2 -7 2 -19 0 -25z m43 -113 c0
-14 -4 -25 -9 -25 -5 0 -8 8 -6 18 2 9 4 20 4 25 2 19 11 4 11 -18z m-17 -77
c-9 -24 -21 -49 -26 -56 -8 -10 -7 -16 4 -23 8 -5 10 -9 4 -9 -31 0 -38 22
-21 62 4 9 5 23 1 30 -4 7 1 4 10 -7 l17 -20 -3 20 c-4 22 7 45 22 45 5 0 1
-19 -8 -42z m-64 -109 c1 11 5 10 15 -5 13 -17 12 -21 -5 -40 -10 -11 -16 -25
-12 -29 5 -5 0 -3 -9 4 -16 12 -18 11 -19 -5 -1 -11 -1 -23 0 -27 1 -5 -3 -6
-9 -2 -7 4 -9 -2 -4 -19 4 -16 1 -32 -6 -41 -7 -9 -10 -18 -7 -22 4 -3 2 -12
-4 -20 -9 -9 -8 -13 0 -13 16 0 13 -27 -4 -34 -11 -4 -14 2 -11 27 2 18 4 42
5 55 1 15 5 21 13 16 8 -5 9 2 5 23 -3 17 -3 34 1 38 7 6 8 10 11 36 0 6 7 9
14 6 7 -2 18 6 23 18 9 19 9 22 -2 18 -10 -4 -14 3 -13 23 l1 29 8 -25 c4 -14
8 -19 9 -11z m-19 -269 c-28 -39 -41 -46 -37 -19 2 12 14 28 28 35 33 18 33
18 9 -16z m-40 -57 c-1 -16 -29 -45 -40 -41 -6 2 -4 12 7 25 18 23 33 30 33
16z"/>
<path d="M13720 20070 c0 -5 5 -10 10 -10 6 0 10 5 10 10 0 6 -4 10 -10 10 -5
0 -10 -4 -10 -10z"/>
<path d="M13640 20063 c-32 -6 -45 -19 -29 -28 8 -5 10 -4 5 3 -5 8 1 12 16
12 13 0 30 5 38 10 16 10 12 10 -30 3z"/>
<path d="M7466 20030 c6 -6 24 -13 40 -16 16 -2 41 -9 56 -15 15 -6 33 -9 40
-7 7 3 -19 14 -59 26 -80 25 -91 26 -77 12z"/>
<path d="M13626 20021 c-3 -4 -26 -11 -52 -15 -26 -3 -54 -12 -62 -19 -8 -6
-22 -12 -31 -13 -33 -1 -101 -16 -105 -23 -7 -10 147 13 202 30 24 8 48 22 53
32 10 17 5 25 -5 8z"/>
<path d="M13650 19985 c-24 -25 -50 -45 -57 -45 -8 0 -16 -6 -19 -14 -3 -9
-13 -12 -22 -9 -9 4 -14 3 -10 -2 4 -4 2 -15 -5 -24 -8 -11 -3 -9 19 4 45 29
65 46 109 93 52 56 41 54 -15 -3z"/>
<path d="M7628 19983 c7 -3 16 -2 19 1 4 3 -2 6 -13 5 -11 0 -14 -3 -6 -6z"/>
<path d="M7665 19972 c10 -9 85 -32 101 -32 13 1 -46 26 -81 34 -18 4 -26 4
-20 -2z"/>
<path d="M7800 19932 c0 -6 9 -12 20 -15 11 -3 20 -3 20 -1 0 2 -9 8 -20 14
-11 6 -20 7 -20 2z"/>
<path d="M13230 19930 c-12 -8 -10 -10 10 -9 14 1 36 5 50 9 23 7 22 8 -10 9
-19 0 -42 -4 -50 -9z"/>
<path d="M7544 19915 c11 -8 27 -15 35 -15 10 1 7 6 -9 15 -33 19 -50 18 -26
0z"/>
<path d="M7874 19905 c15 -8 33 -15 40 -15 6 0 -2 7 -18 15 -15 8 -33 15 -40
15 -6 0 2 -7 18 -15z"/>
<path d="M7600 19900 c0 -4 10 -11 23 -15 39 -12 81 -24 117 -33 19 -5 44 -13
55 -17 14 -6 17 -5 10 2 -5 6 -44 21 -85 33 -41 12 -79 25 -85 29 -16 9 -35
10 -35 1z"/>
<path d="M13432 19881 c-45 -15 -79 -30 -76 -34 3 -3 13 -3 22 0 15 4 15 3 2
-6 -19 -14 -53 -14 -45 -1 3 6 4 10 0 10 -10 0 -148 -39 -152 -44 -2 -2 23 -8
56 -14 54 -10 71 -8 153 14 51 14 116 29 143 35 121 23 219 49 213 55 -4 4
-141 -23 -212 -41 -21 -6 -27 -5 -22 4 5 7 -2 11 -18 11 -14 0 -26 -4 -26 -10
0 -5 -7 -10 -15 -10 -29 0 -14 18 33 38 65 28 43 25 -56 -7z"/>
<path d="M8030 19850 c8 -5 22 -9 30 -9 10 0 8 3 -5 9 -27 12 -43 12 -25 0z"/>
<path d="M8090 19830 c8 -5 22 -9 30 -9 10 0 8 3 -5 9 -27 12 -43 12 -25 0z"/>
<path d="M7855 19810 c27 -12 43 -12 25 0 -8 5 -22 9 -30 9 -10 0 -8 -3 5 -9z"/>
<path d="M8148 19813 c7 -3 16 -2 19 1 4 3 -2 6 -13 5 -11 0 -14 -3 -6 -6z"/>
<path d="M11960 19805 c-14 -8 -49 -16 -78 -19 -29 -3 -56 -7 -61 -10 -4 -3
-27 -8 -50 -11 -61 -7 -91 -16 -91 -25 0 -5 15 -4 33 2 17 5 39 10 47 10 41 0
215 42 227 54 17 17 7 16 -27 -1z"/>
<path d="M8180 19800 c0 -6 7 -10 15 -10 8 0 15 2 15 4 0 2 -7 6 -15 10 -8 3
-15 1 -15 -4z"/>
<path d="M11748 19803 c6 -2 18 -2 25 0 6 3 1 5 -13 5 -14 0 -19 -2 -12 -5z"/>
<path d="M11582 19773 c-35 -8 -61 -18 -58 -21 6 -5 96 12 146 28 l25 8 -25 0
c-14 0 -53 -7 -88 -15z"/>
<path d="M7980 19774 c0 -7 52 -25 57 -20 2 2 -10 8 -26 14 -17 6 -31 9 -31 6z"/>
<path d="M13438 19773 c7 -3 16 -2 19 1 4 3 -2 6 -13 5 -11 0 -14 -3 -6 -6z"/>
<path d="M13470 19776 c0 -2 11 -6 25 -8 14 -3 25 -1 25 3 0 5 -11 9 -25 9
-14 0 -25 -2 -25 -4z"/>
<path d="M13368 19763 c6 -2 18 -2 25 0 6 3 1 5 -13 5 -14 0 -19 -2 -12 -5z"/>
<path d="M8050 19751 c0 -5 8 -11 18 -14 9 -3 50 -17 91 -31 41 -15 76 -25 78
-23 2 3 -25 14 -59 26 -35 13 -78 29 -95 37 -18 7 -33 10 -33 5z"/>
<path d="M8321 19751 c14 -5 35 -13 46 -20 17 -8 23 -8 29 1 4 7 4 10 -1 6 -4
-4 -20 -1 -36 7 -15 8 -36 15 -46 14 -12 0 -9 -3 8 -8z"/>
<path d="M11425 19735 c-53 -17 -23 -18 40 0 29 8 39 14 25 14 -14 0 -43 -6
-65 -14z"/>
<path d="M11650 19740 c-13 -8 -12 -10 3 -10 9 0 17 5 17 10 0 12 -1 12 -20 0z"/>
<path d="M11615 19730 c-3 -5 -1 -10 4 -10 6 0 11 5 11 10 0 6 -2 10 -4 10 -3
0 -8 -4 -11 -10z"/>
<path d="M13798 19723 c7 -3 16 -2 19 1 4 3 -2 6 -13 5 -11 0 -14 -3 -6 -6z"/>
<path d="M11330 19710 c-11 -8 -7 -9 15 -4 37 8 45 14 19 14 -10 0 -26 -5 -34
-10z"/>
<path d="M11568 19713 c6 -2 18 -2 25 0 6 3 1 5 -13 5 -14 0 -19 -2 -12 -5z"/>
<path d="M13855 19710 c28 -12 37 -12 30 0 -3 6 -16 10 -28 9 -21 0 -21 -1 -2
-9z"/>
<path d="M8460 19700 c0 -6 7 -10 15 -10 8 0 15 2 15 4 0 2 -7 6 -15 10 -8 3
-15 1 -15 -4z"/>
<path d="M13965 19690 c7 -11 45 -20 45 -10 0 4 -11 10 -25 12 -13 3 -22 2
-20 -2z"/>
<path d="M8510 19682 c0 -8 62 -31 100 -37 13 -2 26 -9 28 -14 2 -6 8 -9 13
-6 5 4 26 -2 46 -12 21 -10 40 -18 43 -19 3 0 18 -6 33 -12 16 -7 37 -12 47
-12 10 0 22 -4 25 -10 3 -5 15 -10 26 -10 11 0 17 -4 14 -10 -4 -6 1 -7 11 -3
12 4 15 3 10 -5 -4 -8 -2 -10 8 -6 8 3 24 0 37 -6 31 -17 80 -30 74 -21 -2 5
-15 11 -27 14 -13 3 -56 19 -97 36 -41 18 -82 33 -90 35 -9 1 -27 8 -41 14
-99 43 -260 96 -260 84z"/>
<path d="M11228 19683 c6 -2 18 -2 25 0 6 3 1 5 -13 5 -14 0 -19 -2 -12 -5z"/>
<path d="M8266 19665 c22 -17 48 -20 39 -5 -4 6 -10 8 -15 5 -5 -3 -11 -1 -15
5 -3 5 -11 10 -18 10 -6 0 -2 -7 9 -15z"/>
<path d="M11370 19670 c-13 -8 -12 -10 3 -10 9 0 17 5 17 10 0 12 -1 12 -20 0z"/>
<path d="M14055 19666 c81 -28 226 -68 231 -64 2 3 -44 19 -103 36 -121 35
-194 51 -128 28z"/>
<path d="M11140 19660 c-21 -7 -21 -8 -5 -9 11 0 27 4 35 9 18 11 5 11 -30 0z"/>
<path d="M11060 19640 c-21 -7 -21 -8 -5 -9 11 0 27 4 35 9 18 11 5 11 -30 0z"/>
<path d="M11238 19633 c7 -3 16 -2 19 1 4 3 -2 6 -13 5 -11 0 -14 -3 -6 -6z"/>
<path d="M11080 19599 c0 -6 -9 -9 -20 -6 -11 3 -18 1 -14 -4 3 -5 -5 -10 -18
-10 -13 -1 -16 -3 -8 -5 9 -3 33 2 54 9 30 10 35 15 23 20 -10 4 -17 2 -17 -4z"/>
<path d="M8460 19590 c8 -5 20 -10 25 -10 6 0 3 5 -5 10 -8 5 -19 10 -25 10
-5 0 -3 -5 5 -10z"/>
<path d="M14375 19569 c22 -10 49 -18 60 -18 11 0 -5 8 -35 19 -69 24 -77 24
-25 -1z"/>
<path d="M14028 19573 c7 -3 16 -2 19 1 4 3 -2 6 -13 5 -11 0 -14 -3 -6 -6z"/>
<path d="M10815 19560 c-8 -13 5 -13 25 0 13 8 13 10 -2 10 -9 0 -20 -4 -23
-10z"/>
<path d="M14065 19560 c3 -5 8 -10 11 -10 2 0 4 5 4 10 0 6 -5 10 -11 10 -5 0
-7 -4 -4 -10z"/>
<path d="M8590 19540 c8 -5 20 -10 25 -10 6 0 3 5 -5 10 -8 5 -19 10 -25 10
-5 0 -3 -5 5 -10z"/>
<path d="M10755 19540 c-16 -7 -17 -9 -3 -9 9 -1 20 4 23 9 7 11 7 11 -20 0z"/>
<path d="M14148 19533 c7 -3 16 -2 19 1 4 3 -2 6 -13 5 -11 0 -14 -3 -6 -6z"/>
<path d="M14500 19527 c14 -8 36 -17 50 -21 l25 -7 -25 14 c-14 8 -36 17 -50
21 l-25 7 25 -14z"/>
<path d="M14190 19522 c8 -5 26 -13 40 -16 17 -5 20 -4 10 2 -8 5 -26 13 -40
16 -17 5 -20 4 -10 -2z"/>
<path d="M8660 19516 c0 -3 119 -49 185 -71 56 -19 -20 17 -95 44 -89 33 -90
33 -90 27z"/>
<path d="M14270 19490 c8 -5 22 -9 30 -9 10 0 8 3 -5 9 -27 12 -43 12 -25 0z"/>
<path d="M19751 19492 c-1 -8 -6 -10 -13 -6 -7 4 -10 3 -5 -1 12 -13 47 -16
47 -4 0 5 -4 8 -9 5 -5 -4 -12 0 -14 6 -4 10 -6 10 -6 0z"/>
<path d="M19798 19472 c4 -11 7 -12 10 -4 2 7 8 12 13 12 6 0 7 -4 4 -10 -4
-7 2 -7 19 0 16 6 26 5 30 -1 2 -5 3 -4 2 3 -2 8 -19 14 -44 14 -33 1 -39 -1
-34 -14z"/>
<path d="M19895 19479 c-4 -5 -4 -13 -1 -16 3 -4 6 0 6 8 0 11 2 11 10 -1 6
-9 10 -10 10 -3 0 17 -17 25 -25 12z"/>
<path d="M9089 19465 c18 -8 38 -15 45 -14 15 1 -46 28 -64 28 -8 0 0 -6 19
-14z"/>
<path d="M14330 19472 c8 -5 26 -13 40 -16 17 -5 20 -4 10 2 -8 5 -26 13 -40
16 -17 5 -20 4 -10 -2z"/>
<path d="M14644 19471 c3 -5 16 -11 28 -14 22 -6 22 -5 4 8 -22 17 -40 20 -32
6z"/>
<path d="M19833 19444 c-5 -12 -7 -13 -14 -3 -6 10 -11 5 -18 -14 -14 -35 -14
-57 -1 -57 6 0 10 7 10 16 0 8 5 12 10 9 6 -3 10 -1 10 5 0 6 5 8 11 4 7 -4 9
0 5 14 -5 15 -2 21 11 24 17 3 17 4 0 11 -12 4 -20 1 -24 -9z"/>
<path d="M9158 19438 c5 -5 16 -8 23 -6 8 3 3 7 -10 11 -17 4 -21 3 -13 -5z"/>
<path d="M14410 19440 c8 -5 20 -10 25 -10 6 0 3 5 -5 10 -8 5 -19 10 -25 10
-5 0 -3 -5 5 -10z"/>
<path d="M19873 19433 c-7 -3 -13 -11 -13 -19 0 -11 7 -13 28 -8 35 9 34 8 14
20 -9 6 -23 9 -29 7z"/>
<path d="M9220 19422 c8 -5 26 -13 40 -16 17 -5 20 -4 10 2 -8 5 -26 13 -40
16 -17 5 -20 4 -10 -2z"/>
<path d="M14450 19426 c0 -2 7 -7 16 -10 8 -3 12 -2 9 4 -6 10 -25 14 -25 6z"/>
<path d="M8960 19404 c0 -7 52 -25 57 -20 2 2 -10 8 -26 14 -17 6 -31 9 -31 6z"/>
<path d="M9320 19379 c0 -5 5 -7 10 -4 6 3 10 8 10 11 0 2 -4 4 -10 4 -5 0
-10 -5 -10 -11z"/>
<path d="M19857 19377 c-3 -9 -9 -40 -12 -69 l-5 -53 15 59 c15 57 16 99 2 63z"/>
<path d="M9040 19370 c8 -5 20 -10 25 -10 6 0 3 5 -5 10 -8 5 -19 10 -25 10
-5 0 -3 -5 5 -10z"/>
<path d="M19746 19305 c-19 -34 -50 -84 -70 -109 -22 -29 -33 -53 -30 -64 4
-12 3 -14 -4 -4 -7 10 -13 7 -27 -15 -10 -15 -18 -33 -18 -40 0 -6 -5 -11 -10
-10 -5 1 -12 -4 -15 -12 -3 -9 0 -11 9 -6 8 5 11 4 6 -1 -5 -5 -14 -9 -19 -9
-6 0 -13 -6 -16 -14 -3 -8 0 -11 6 -7 6 3 13 2 16 -3 3 -4 -4 -8 -17 -7 -16 1
-22 -5 -23 -22 -1 -12 -9 -31 -19 -42 -10 -11 -14 -20 -10 -20 5 0 -6 -16 -25
-35 -18 -18 -38 -33 -44 -32 -6 1 -10 -6 -10 -15 1 -10 -2 -16 -6 -13 -4 2
-29 -23 -56 -58 -26 -34 -63 -79 -81 -100 -19 -21 -31 -42 -28 -48 4 -5 2 -8
-3 -7 -6 2 -74 -69 -152 -157 -432 -487 -1147 -1139 -1379 -1257 -85 -44 -93
-41 -141 55 -80 156 -329 470 -534 672 -281 276 -575 524 -816 685 -108 72
-252 181 -247 186 3 3 49 14 102 25 54 11 114 27 134 35 20 9 50 18 66 21 17
3 35 9 41 14 6 5 15 5 19 1 5 -4 5 -1 1 6 -6 9 -1 11 18 8 19 -3 23 -1 19 11
-4 11 -8 11 -13 3 -6 -9 -9 -9 -12 1 -3 9 -7 9 -18 -3 -8 -8 -24 -12 -37 -10
-17 3 -23 0 -23 -14 0 -13 -3 -15 -8 -7 -4 6 -21 14 -37 17 -29 5 -29 5 -10
-11 20 -15 20 -15 -2 -10 -12 3 -24 0 -26 -6 -2 -6 -11 -8 -21 -4 -9 4 -14 12
-10 18 5 8 9 8 14 -1 5 -8 9 -6 14 6 4 10 4 15 0 11 -4 -4 -13 -2 -21 5 -8 6
-13 7 -12 2 4 -21 -2 -28 -12 -14 -8 12 -9 9 -5 -10 3 -14 3 -19 0 -12 -3 6
-11 9 -16 6 -6 -4 -8 -2 -4 4 3 6 -1 9 -10 8 -8 -1 -20 -9 -25 -17 -7 -11 -9
-11 -9 -1 0 8 -5 10 -12 5 -18 -11 -42 -10 -50 2 -5 6 -8 5 -8 -3 0 -7 -4 -10
-10 -7 -17 10 -51 14 -45 6 3 -5 -2 -12 -11 -15 -10 -4 -13 -2 -8 6 5 7 2 9
-7 6 -8 -3 -23 -2 -34 3 -17 6 -17 8 -2 8 9 1 17 5 17 10 0 4 -16 3 -35 -3
-27 -8 -31 -12 -17 -18 12 -4 7 -7 -15 -7 -33 -1 -103 -15 -157 -31 -23 -7
-39 -3 -85 22 -31 17 -51 26 -46 21 6 -6 26 -20 45 -31 483 -275 658 -399
1165 -831 147 -125 454 -438 575 -585 58 -71 129 -156 158 -189 28 -33 52 -63
52 -67 0 -4 -27 -5 -60 -3 -33 3 -60 2 -60 -1 0 -9 72 -25 211 -46 74 -11 179
-30 234 -41 91 -20 119 -21 320 -16 256 7 394 23 585 69 91 21 414 137 406
145 -3 3 -44 -4 -93 -15 -305 -70 -473 -90 -848 -101 -159 -5 -291 -8 -293 -6
-1 1 23 22 55 46 98 73 252 208 388 339 527 508 815 838 1161 1330 138 196
156 224 182 282 11 26 30 57 41 70 12 12 20 27 18 33 -2 5 0 20 4 33 5 13 5
22 -1 22 -17 0 -11 28 8 32 14 3 13 5 -5 10 -19 5 -27 -3 -57 -57z m31 -7 c-3
-7 -5 -2 -5 12 0 14 2 19 5 13 2 -7 2 -19 0 -25z m-637 -832 c0 -2 -8 -10 -17
-17 -16 -13 -17 -12 -4 4 13 16 21 21 21 13z"/>
<path d="M9090 19350 c8 -5 20 -10 25 -10 6 0 3 5 -5 10 -8 5 -19 10 -25 10
-5 0 -3 -5 5 -10z"/>
<path d="M14990 19326 c0 -2 7 -7 16 -10 8 -3 12 -2 9 4 -6 10 -25 14 -25 6z"/>
<path d="M9231 19301 c24 -15 277 -117 389 -156 52 -19 109 -39 125 -45 l30
-12 -35 -13 c-38 -13 -403 -235 -485 -293 -244 -176 -526 -415 -696 -589 -225
-231 -295 -314 -436 -517 -85 -122 -85 -164 -1 -88 67 59 81 73 149 152 91
106 337 360 513 530 199 191 479 423 674 559 18 12 30 26 27 31 -3 5 0 12 6
16 8 4 9 3 5 -4 -4 -7 -5 -12 -1 -12 11 0 231 150 259 177 16 15 26 21 21 13
-4 -8 2 -5 14 8 12 12 27 22 34 22 7 0 24 11 39 24 14 14 28 22 32 19 3 -3 10
6 15 20 5 14 16 27 23 30 7 3 -1 6 -19 6 -17 1 -35 6 -38 11 -3 6 -12 10 -18
10 -7 0 2 -9 18 -20 35 -23 19 -26 -30 -6 -19 8 -35 12 -35 9 0 -3 -8 1 -17 8
-9 8 -14 9 -11 4 10 -16 -47 -12 -68 5 -10 8 -15 10 -11 3 5 -7 1 -10 -10 -8
-10 2 -19 4 -20 5 -2 2 -7 3 -12 4 -5 0 -12 4 -16 8 -8 8 16 5 31 -4 6 -4 11
-2 11 5 0 8 -18 12 -52 12 -40 0 -51 -3 -47 -13 4 -11 -3 -10 -33 2 -32 14
-36 14 -25 1 11 -13 8 -14 -17 -11 -17 1 -36 7 -44 12 -8 5 -16 9 -19 10 -3 0
-12 4 -20 7 -15 7 -156 58 -195 72 -17 5 -17 5 -4 -4z"/>
<path d="M9640 19276 c0 -2 8 -10 18 -17 15 -13 16 -12 3 4 -13 16 -21 21 -21
13z"/>
<path d="M17678 19269 c-7 -4 -7 -9 1 -13 6 -4 11 -1 11 6 0 9 3 9 10 -2 6
-10 10 -11 10 -2 0 6 5 12 11 12 5 0 7 -5 3 -12 -4 -7 -3 -8 4 -4 21 13 13 26
-14 24 -14 -1 -30 -5 -36 -9z"/>
<path d="M9496 19235 c-11 -8 -15 -15 -9 -15 6 0 16 7 23 15 16 19 11 19 -14
0z"/>
<path d="M9985 19205 c-22 -13 -37 -25 -33 -25 9 0 78 41 78 46 0 6 -3 5 -45
-21z"/>
<path d="M9788 19213 c7 -3 16 -2 19 1 4 3 -2 6 -13 5 -11 0 -14 -3 -6 -6z"/>
<path d="M5701 19164 c0 -11 3 -14 6 -6 3 7 2 16 -1 19 -3 4 -6 -2 -5 -13z"/>
<path d="M15487 19079 c7 -7 15 -10 18 -7 3 3 -2 9 -12 12 -14 6 -15 5 -6 -5z"/>
<path d="M15570 19036 c0 -3 14 -12 30 -21 17 -9 30 -13 30 -11 0 3 -13 12
-30 21 -16 9 -30 13 -30 11z"/>
<path d="M19952 18990 c0 -14 2 -19 5 -12 2 6 2 18 0 25 -3 6 -5 1 -5 -13z"/>
<path d="M16514 18968 c-3 -5 -10 -6 -15 -3 -5 4 -9 -1 -9 -10 0 -10 -4 -13
-12 -8 -21 13 -35 12 -35 -3 0 -10 4 -11 13 -3 8 7 14 7 19 -1 5 -8 10 -8 20
0 10 8 15 7 19 -2 3 -7 4 -4 3 7 -1 11 3 20 10 20 18 0 25 12 8 12 -9 0 -18
-4 -21 -9z"/>
<path d="M19481 18925 c-48 -66 -53 -80 -11 -40 16 15 27 32 24 36 -2 4 0 10
6 14 10 6 34 45 27 45 -2 0 -23 -25 -46 -55z"/>
<path d="M16630 18960 c-23 -7 -23 -8 -3 -9 12 -1 25 4 28 9 3 6 5 10 3 9 -2
-1 -14 -5 -28 -9z"/>
<path d="M16535 18940 c-3 -6 1 -7 9 -4 18 7 21 14 7 14 -6 0 -13 -4 -16 -10z"/>
<path d="M19985 18780 c3 -5 8 -10 11 -10 2 0 4 5 4 10 0 6 -5 10 -11 10 -5 0
-7 -4 -4 -10z"/>
<path d="M19980 18710 c0 -30 -3 -80 -6 -110 -4 -35 -2 -50 4 -42 5 7 10 45
11 85 1 39 4 74 7 79 3 4 0 16 -5 25 -8 14 -10 5 -11 -37z"/>
<path d="M19971 18524 c0 -11 3 -14 6 -6 3 7 2 16 -1 19 -3 4 -6 -2 -5 -13z"/>
<path d="M5723 18260 c-1 -11 2 -22 6 -24 4 -3 7 4 6 14 -2 27 -10 33 -12 10z"/>
<path d="M5720 18126 c0 -8 4 -17 9 -20 5 -4 7 3 4 14 -6 23 -13 26 -13 6z"/>
<path d="M5745 17940 c-7 -11 2 -110 10 -118 3 -3 5 10 5 30 0 19 3 38 7 42
12 12 11 35 -2 46 -9 8 -15 8 -20 0z m21 -25 c1 -8 -1 -17 -5 -19 -4 -3 -7 6
-7 19 0 25 8 25 12 0z"/>
<path d="M5762 17725 c-1 -16 5 -59 12 -95 l13 -65 0 83 c0 45 -4 77 -8 71 -5
-8 -9 -4 -12 12 -4 21 -4 20 -5 -6z"/>
<path d="M19854 17686 c-3 -21 -4 -39 -1 -42 2 -3 8 11 11 32 4 20 5 38 2 41
-2 3 -8 -11 -12 -31z"/>
<path d="M6611 17697 c2 -1 13 -9 24 -17 19 -14 19 -14 6 3 -7 9 -18 17 -24
17 -6 0 -8 -1 -6 -3z"/>
<path d="M6710 17621 c0 -10 19 -25 25 -20 1 2 -3 10 -11 17 -8 7 -14 8 -14 3z"/>
<path d="M19836 17584 c-4 -20 -5 -38 -2 -41 2 -3 8 11 12 31 3 21 4 39 1 42
-2 3 -8 -11 -11 -32z"/>
<path d="M7077 17534 c-12 -12 -8 -44 6 -50 37 -14 167 -40 167 -34 0 5 -18
11 -40 15 -22 4 -37 11 -34 16 3 5 2 8 -3 7 -16 -4 -58 15 -73 34 -9 10 -19
16 -23 12z"/>
<path d="M5796 17490 c8 -56 14 -64 14 -19 0 19 -5 41 -10 49 -7 10 -8 1 -4
-30z"/>
<path d="M19794 17412 c0 -9 -4 -37 -7 -62 -4 -28 -4 -37 1 -25 13 30 22 94
13 99 -3 3 -7 -3 -7 -12z"/>
<path d="M5810 17378 c0 -7 6 -42 14 -78 8 -36 22 -109 31 -163 17 -106 38
-172 32 -104 -2 30 0 37 12 32 12 -4 11 -1 -2 9 -10 8 -14 17 -9 20 12 7 21
76 10 76 -8 0 -11 -16 -11 -53 1 -39 -19 2 -23 48 -2 27 -6 56 -9 66 -4 10 -1
29 5 41 11 22 10 22 -4 4 -15 -19 -16 -17 -18 25 0 24 -1 49 -1 54 0 6 -6 16
-13 23 -11 10 -14 10 -14 0z"/>
<path d="M6945 17230 c-8 -12 62 -45 127 -59 186 -42 498 -55 612 -25 33 9 81
26 106 37 l45 22 -350 7 c-192 3 -384 11 -425 17 -96 13 -107 13 -115 1z"/>
<path d="M19746 17203 c-6 -14 -5 -15 5 -6 7 7 10 15 7 18 -3 3 -9 -2 -12 -12z"/>
<path d="M19736 17144 c-4 -14 -5 -28 -3 -31 3 -2 8 8 11 23 4 14 5 28 3 31
-3 2 -8 -8 -11 -23z"/>
<path d="M6981 17155 c4 -3 19 -8 35 -11 16 -3 26 -2 23 1 -4 3 -19 8 -35 11
-16 3 -26 2 -23 -1z"/>
<path d="M7056 17138 c3 -4 11 -5 19 -1 21 7 19 12 -4 10 -11 0 -18 -5 -15 -9z"/>
<path d="M6518 17133 c7 -3 16 -2 19 1 4 3 -2 6 -13 5 -11 0 -14 -3 -6 -6z"/>
<path d="M6588 17133 c7 -3 16 -2 19 1 4 3 -2 6 -13 5 -11 0 -14 -3 -6 -6z"/>
<path d="M7110 17130 c-8 -5 -10 -10 -5 -11 6 0 18 -2 28 -4 15 -3 16 -1 6 11
-14 16 -10 16 -29 4z"/>
<path d="M19631 17124 c0 -11 3 -14 6 -6 3 7 2 16 -1 19 -3 4 -6 -2 -5 -13z"/>
<path d="M19694 16993 c-3 -16 -8 -35 -10 -43 -3 -10 -2 -11 4 -5 10 11 24 75
17 75 -3 0 -7 -12 -11 -27z"/>
<path d="M17748 16876 c75 -70 117 -87 379 -156 279 -74 590 -91 718 -39 27
10 13 14 -145 34 -232 31 -340 50 -463 85 -130 36 -503 120 -533 120 -2 0 18
-20 44 -44z"/>
<path d="M19665 16899 c-4 -6 -5 -12 -2 -15 2 -3 7 2 10 11 7 17 1 20 -8 4z"/>
<path d="M19551 16843 c-1 -6 -4 -20 -7 -30 -5 -17 -5 -17 6 0 6 10 9 23 6 30
-3 9 -5 9 -5 0z"/>
<path d="M19636 16793 c-6 -14 -5 -15 5 -6 7 7 10 15 7 18 -3 3 -9 -2 -12 -12z"/>
<path d="M19526 16763 c-6 -14 -5 -15 5 -6 7 7 10 15 7 18 -3 3 -9 -2 -12 -12z"/>
<path d="M19597 16676 c-4 -10 -7 -25 -6 -34 0 -11 4 -9 10 7 5 13 8 29 6 35
-2 5 -6 2 -10 -8z"/>
<path d="M19495 16659 c-4 -6 -5 -12 -2 -15 2 -3 7 2 10 11 7 17 1 20 -8 4z"/>
<path d="M19472 16593 c-6 -20 -10 -39 -8 -41 2 -2 9 13 16 33 7 20 10 38 8
41 -3 2 -10 -13 -16 -33z"/>
<path d="M17950 16616 c0 -3 20 -28 45 -56 25 -28 56 -68 69 -88 120 -192 265
-545 414 -1017 74 -232 148 -531 196 -795 24 -132 66 -476 66 -545 0 -18 3
-36 8 -38 4 -3 8 34 10 81 1 47 6 89 10 92 4 3 8 19 8 35 2 66 4 85 12 85 15
0 8 -106 -8 -125 -8 -11 -10 -16 -3 -12 6 4 14 3 17 -2 4 -5 2 -12 -4 -16 -7
-4 -7 -12 0 -25 13 -24 13 -33 0 -25 -7 4 -7 -3 0 -20 7 -18 7 -24 0 -20 -7 4
-8 -3 -4 -22 4 -15 7 -36 7 -45 -1 -9 5 -22 13 -29 13 -11 14 6 10 137 -6 166
-13 255 -27 359 -6 39 -12 102 -16 140 -3 39 -8 72 -12 75 -11 9 -12 32 -1 25
6 -3 10 4 10 17 0 13 6 30 13 37 10 11 9 13 -6 8 -10 -4 -16 -3 -12 2 3 5 2
11 -2 14 -5 2 -3 2 4 1 7 -2 10 3 7 11 -3 7 -1 22 5 33 8 14 7 19 -4 19 -8 0
-12 -4 -9 -9 11 -17 -8 -7 -31 17 -15 17 -29 53 -40 103 -44 199 -162 554
-267 806 -111 267 -155 354 -257 507 -49 74 -88 135 -87 137 2 1 63 -25 137
-59 229 -105 475 -178 613 -181 63 -2 95 6 65 16 -280 91 -394 135 -568 217
-57 27 -120 54 -140 58 -129 31 -170 46 -203 72 -21 17 -38 28 -38 25z m824
-2122 c3 -8 2 -12 -4 -9 -6 3 -10 10 -10 16 0 14 7 11 14 -7z"/>
<path d="M19431 16479 c-12 -35 -21 -68 -20 -73 0 -6 11 20 25 58 13 38 22 71
20 73 -2 2 -13 -24 -25 -58z"/>
<path d="M19496 16373 c-6 -14 -5 -15 5 -6 7 7 10 15 7 18 -3 3 -9 -2 -12 -12z"/>
<path d="M19356 16269 c-21 -55 -36 -103 -32 -106 3 -3 6 0 6 8 0 8 9 33 20
57 10 23 19 45 20 47 0 3 7 23 16 45 9 23 15 43 13 45 -2 2 -22 -41 -43 -96z"/>
<path d="M19471 16284 c0 -11 3 -14 6 -6 3 7 2 16 -1 19 -3 4 -6 -2 -5 -13z"/>
<path d="M19433 16192 c-11 -26 -23 -58 -27 -72 l-6 -25 12 25 c30 64 49 112
46 116 -3 2 -14 -18 -25 -44z"/>
<path d="M19301 16129 c-6 -13 -32 -78 -60 -144 -27 -66 -56 -137 -65 -157
-12 -27 -13 -39 -4 -44 6 -4 8 -3 5 3 -3 5 0 22 8 36 25 49 119 274 120 287 0
3 4 11 9 18 4 7 5 16 2 19 -3 3 -10 -5 -15 -18z"/>
<path d="M19353 15995 c-3 -9 -3 -18 -1 -21 3 -3 8 4 11 16 6 23 -1 27 -10 5z"/>
<path d="M19301 15844 c0 -11 3 -14 6 -6 3 7 2 16 -1 19 -3 4 -6 -2 -5 -13z"/>
<path d="M19277 15793 c-4 -3 -7 -11 -7 -17 0 -6 5 -5 12 2 6 6 9 14 7 17 -3
3 -9 2 -12 -2z"/>
<path d="M19146 15764 c-4 -9 -4 -19 -1 -22 3 -3 5 0 5 7 0 7 4 9 10 6 6 -3 7
1 4 9 -8 20 -10 20 -18 0z"/>
<path d="M19247 15723 c-21 -48 -15 -55 8 -8 9 20 15 38 13 41 -2 2 -12 -13
-21 -33z"/>
<path d="M19125 15719 c-4 -6 -5 -12 -2 -15 2 -3 7 2 10 11 7 17 1 20 -8 4z"/>
<path d="M11957 15708 c4 -7 29 -44 54 -83 155 -238 210 -520 160 -817 -54
-311 -195 -534 -439 -691 -218 -140 -521 -203 -856 -179 -651 48 -1129 35
-1611 -43 -191 -31 -198 -31 -110 0 78 28 236 97 231 102 -1 1 -133 -40 -292
-92 -365 -118 -441 -135 -657 -142 -232 -8 -430 19 -602 81 -49 18 -99 36
-110 41 -12 4 -7 -5 15 -24 39 -35 140 -104 155 -107 6 -2 37 -12 70 -24 227
-82 385 -111 625 -113 l126 -1 -35 -51 c-95 -139 -195 -438 -232 -690 -19
-127 -17 -361 3 -461 37 -177 128 -359 236 -470 l40 -41 -74 -62 c-97 -82
-195 -206 -245 -310 -39 -81 -45 -118 -12 -71 154 220 522 438 901 534 470
119 899 124 1479 15 324 -60 588 -144 713 -226 74 -48 37 -7 -47 53 -35 25
-63 47 -63 50 0 3 22 31 48 62 152 177 246 405 287 695 24 168 15 406 -24 647
-12 77 -65 258 -111 380 -17 47 -34 92 -36 101 -5 13 3 18 37 24 108 18 372
184 476 299 186 205 274 482 244 769 -30 284 -133 561 -289 780 -30 42 -57 77
-59 77 -2 0 0 -6 4 -12z m-543 -2100 c49 -118 93 -279 127 -469 19 -109 21
-147 16 -319 -7 -276 -42 -445 -130 -633 -44 -94 -125 -227 -137 -227 -4 0
-46 18 -93 40 -203 93 -483 182 -707 224 -218 40 -313 49 -530 49 -231 0 -385
-17 -569 -62 -167 -42 -228 -64 -390 -142 -79 -38 -145 -68 -146 -67 -30 38
-143 236 -170 298 -64 149 -87 255 -92 427 -8 234 24 399 113 578 36 73 39 84
18 60 -14 -16 -35 -50 -47 -75 -11 -25 -22 -40 -24 -34 -2 7 7 36 20 65 14 30
32 75 42 102 10 28 21 44 27 41 7 -5 8 -2 4 5 -9 14 12 71 25 71 5 0 9 7 9 15
0 9 7 18 15 21 8 4 12 10 9 16 -9 15 35 47 75 54 20 3 51 10 69 14 21 6 32 5
32 -2 0 -6 -20 -64 -45 -129 -77 -202 -88 -265 -89 -489 -1 -205 5 -252 50
-386 24 -72 80 -194 90 -194 2 0 0 9 -6 20 -6 11 -8 26 -4 32 4 6 3 8 -3 5
-23 -14 -22 37 0 63 l22 25 -27 -24 c-26 -23 -37 -20 -20 5 6 9 92 46 118 50
30 5 54 16 54 25 0 6 4 8 9 5 5 -3 47 8 95 24 47 16 86 26 86 22 0 -4 5 1 11
10 6 11 16 15 26 11 11 -4 14 -3 9 5 -4 7 6 17 26 26 32 13 34 12 65 -17 42
-40 51 -31 12 12 -53 58 -25 43 43 -23 49 -48 90 -76 169 -115 155 -76 233
-94 414 -95 161 -1 237 14 346 70 52 26 182 142 243 215 37 45 39 47 70 36 33
-11 93 -51 114 -76 24 -30 10 -101 -31 -148 -18 -20 -18 -21 0 -20 10 1 21 9
25 17 5 11 7 9 7 -7 1 -13 5 -23 9 -23 4 0 8 -9 9 -19 1 -13 -3 -18 -12 -15
-8 3 -11 12 -8 20 3 8 0 14 -6 14 -6 0 -11 -4 -11 -10 0 -5 -8 -10 -17 -10
-18 0 -12 -10 9 -14 7 -1 23 -8 36 -14 12 -7 22 -9 22 -5 0 4 5 0 11 -10 19
-33 -5 -41 -39 -13 -34 30 -49 32 -97 12 -18 -8 -36 -11 -38 -8 -2 4 -2 2 -1
-5 2 -7 -1 -15 -6 -18 -6 -3 -15 -16 -22 -28 -8 -15 1 -11 30 16 58 52 101 52
151 -1 27 -28 37 -34 37 -21 0 10 -4 15 -8 13 -10 -6 -11 10 -1 19 9 10 34
-14 26 -26 -4 -6 -1 -7 6 -3 9 6 8 12 -4 26 -10 11 -14 24 -9 31 4 7 3 10 -3
6 -15 -9 -43 46 -33 63 8 13 10 13 11 0 1 -8 1 -21 0 -29 -2 -8 2 -10 10 -5 7
4 10 3 5 -4 -5 -9 22 -25 46 -27 4 0 15 -11 25 -25 14 -21 14 -23 1 -12 -13
10 -17 10 -21 -2 -4 -10 1 -13 19 -11 13 1 27 -2 30 -6 3 -5 14 -4 25 1 15 8
21 7 25 -3 3 -8 15 -13 27 -12 12 0 27 -1 32 -4 10 -6 16 -7 35 -10 6 0 10 -5
10 -10 0 -6 -9 -8 -20 -6 -12 2 -18 0 -14 -6 3 -6 -2 -10 -12 -9 -11 1 -26 2
-34 1 -13 -1 -13 -3 -1 -10 8 -5 21 -7 29 -3 11 4 13 1 8 -9 -4 -8 -1 -6 6 3
11 15 13 15 25 0 12 -16 13 -16 7 1 -9 25 5 21 16 -5 8 -18 9 -15 5 17 -4 38
-4 39 9 15 8 -13 12 -32 11 -42 -2 -10 0 -20 5 -23 4 -3 6 11 4 30 -2 29 -1
33 10 22 8 -6 12 -16 9 -22 -2 -5 2 -2 10 8 11 13 16 15 20 5 2 -7 -3 -22 -12
-32 -15 -18 -15 -19 1 -13 12 4 3 -17 -28 -66 -25 -40 -34 -60 -20 -44 97 107
199 377 247 657 17 103 20 146 14 245 -10 189 -52 409 -105 546 -36 97 7 30
54 -83z m-1967 -53 c62 -31 122 -96 160 -174 26 -51 28 -66 28 -171 0 -132 -2
-139 -106 -284 -76 -106 -127 -152 -185 -164 -59 -13 -99 -7 -149 22 -86 51
-150 136 -180 241 -23 78 -16 241 14 337 58 184 252 274 418 193z m258 -640
c14 -13 25 -34 25 -45 0 -21 -55 -80 -75 -80 -18 0 -43 23 -59 54 -15 30 -7
73 17 88 24 16 68 8 92 -17z m1306 -412 c13 -16 12 -17 -3 -4 -17 13 -22 21
-14 21 2 0 10 -8 17 -17z"/>
<path d="M8915 13608 l-16 -33 20 25 c20 24 26 40 16 40 -2 0 -12 -15 -20 -32z"/>
<path d="M8859 13543 c-13 -16 -12 -17 4 -4 9 7 17 15 17 17 0 8 -8 3 -21 -13z"/>
<path d="M9406 12761 c-4 -5 -2 -12 3 -15 5 -4 12 -2 15 3 4 5 2 12 -3 15 -5
4 -12 2 -15 -3z"/>
<path d="M10469 12604 c-11 -13 -9 -14 14 -9 18 5 36 2 53 -10 36 -24 41 -12
6 14 -36 25 -55 26 -73 5z"/>
<path d="M10960 12511 c0 -7 -5 -9 -12 -5 -7 5 -8 3 -3 -5 5 -9 10 -10 18 -2
6 6 8 14 4 18 -4 3 -7 1 -7 -6z"/>
<path d="M10675 12429 c-4 -6 -5 -12 -2 -15 2 -3 7 2 10 11 7 17 1 20 -8 4z"/>
<path d="M9040 12366 c0 -2 8 -10 18 -17 15 -13 16 -12 3 4 -13 16 -21 21 -21
13z"/>
<path d="M11160 12190 c-6 -11 -8 -20 -6 -20 3 0 10 9 16 20 6 11 8 20 6 20
-3 0 -10 -9 -16 -20z"/>
<path d="M14384 15638 c-207 -216 -371 -559 -414 -863 -13 -92 -13 -273 0
-355 29 -184 113 -344 266 -509 91 -99 265 -224 387 -279 37 -17 67 -32 67
-34 0 -2 -24 -60 -53 -129 -107 -247 -183 -520 -206 -741 -24 -220 -10 -474
34 -603 34 -100 124 -254 174 -299 11 -11 21 -23 21 -27 0 -5 -39 -29 -87 -53
-49 -25 -85 -45 -82 -45 3 -1 60 19 126 44 167 62 379 103 725 142 113 13 238
17 473 18 286 0 335 -3 465 -23 446 -71 771 -185 1029 -360 151 -101 258 -216
277 -297 4 -16 11 -35 16 -42 15 -19 -1 -35 -30 -29 -15 3 -92 10 -172 16
-271 19 -296 20 -273 10 12 -5 64 -12 115 -15 175 -11 343 -25 371 -31 15 -3
27 -3 27 0 0 14 -63 173 -91 228 -61 123 -163 241 -276 322 -29 21 -53 40 -53
42 0 2 21 30 48 63 170 212 243 459 229 776 -6 138 -22 233 -62 380 -41 150
-114 320 -149 348 -7 5 -2 6 9 2 11 -3 73 -11 139 -17 128 -12 300 -1 425 28
63 14 89 12 61 -6 -8 -6 -10 -10 -4 -10 5 0 19 7 30 16 10 8 12 12 4 8 -10 -5
-12 -4 -5 4 15 16 70 28 61 13 -4 -6 -15 -11 -24 -12 -9 0 -12 -3 -5 -5 6 -3
30 6 52 20 22 14 43 26 47 26 3 0 24 15 47 34 23 18 53 39 65 45 41 22 18 21
-39 0 -74 -29 -168 -45 -342 -60 -128 -11 -165 -11 -290 4 -172 19 -431 83
-582 142 -60 24 -126 46 -145 49 -23 4 -12 -3 33 -21 37 -15 64 -29 58 -31 -5
-2 -80 11 -167 28 -229 44 -509 77 -1014 120 -582 49 -755 78 -964 160 -302
118 -526 357 -609 650 -27 91 -47 249 -47 359 0 38 9 120 19 183 40 231 144
450 291 611 65 72 61 75 -6 5z m387 -2265 c-22 -168 -22 -296 -1 -430 51 -325
85 -443 185 -645 32 -64 67 -126 77 -139 16 -20 -51 115 -72 146 -4 6 -10 21
-13 35 l-6 25 20 -25 c12 -14 19 -20 16 -15 -2 6 4 18 15 28 10 9 18 14 18 11
0 -4 7 -1 15 6 12 10 15 10 15 -1 0 -12 2 -12 9 0 5 7 14 10 20 7 6 -4 14 -1
17 7 3 9 16 14 30 12 14 -1 37 7 51 19 15 11 24 15 19 8 -4 -7 7 -4 25 7 18
11 37 17 42 14 6 -4 8 0 4 10 -5 13 -2 15 18 7 17 -6 27 -5 36 6 6 8 19 13 27
12 9 -2 18 5 20 16 2 11 0 16 -6 12 -6 -3 -13 -3 -15 1 -3 5 14 9 36 9 23 1
36 -1 30 -3 -7 -3 -13 -9 -13 -15 0 -7 5 -7 13 1 8 6 17 8 21 4 4 -4 4 0 1 9
-4 9 -1 19 6 24 7 4 10 3 6 -3 -4 -6 2 -13 13 -16 21 -5 50 21 49 44 0 8 -4 6
-9 -6 -8 -18 -9 -18 -9 5 -1 19 -3 22 -11 10 -6 -9 -5 -20 3 -29 10 -12 9 -13
-2 -6 -10 6 -12 4 -6 -5 5 -8 4 -11 -3 -6 -6 3 -9 18 -6 32 3 18 1 23 -7 18
-7 -4 -9 -3 -6 3 4 6 16 13 27 16 12 3 17 1 14 -5 -3 -5 2 -8 12 -6 20 3 51
37 46 50 -1 4 20 -9 48 -30 27 -20 66 -46 87 -57 21 -10 46 -26 56 -34 9 -8
17 -12 17 -8 0 3 35 -9 78 -26 70 -28 88 -31 207 -34 136 -3 219 -15 270 -39
l30 -15 -30 23 c-16 13 -41 33 -54 44 l-25 22 54 27 c65 33 157 94 205 136
l35 31 22 -27 c13 -14 32 -28 43 -30 11 -2 22 -4 25 -4 3 -1 0 -5 -7 -9 -8 -5
-9 -21 -3 -49 4 -23 4 -40 0 -38 -9 6 -24 -45 -15 -53 3 -3 5 2 5 11 0 21 17
31 26 16 4 -8 3 -9 -4 -5 -8 5 -12 -1 -12 -15 0 -12 -8 -32 -17 -43 -18 -21
-18 -21 3 -3 11 9 23 14 27 11 4 -4 5 2 3 13 -3 12 1 20 9 20 7 0 12 -8 10
-18 -2 -10 3 -23 11 -29 11 -10 16 -8 23 11 l10 24 0 -26 c1 -15 7 -32 15 -38
12 -10 18 -7 31 16 14 24 15 24 12 6 -3 -13 0 -26 6 -30 7 -3 9 -3 5 2 -14 15
11 43 32 38 21 -6 46 -40 36 -51 -3 -3 -6 1 -6 9 0 12 -2 11 -11 -1 -8 -12 -9
-9 -4 9 6 19 4 23 -8 18 -9 -3 -18 -1 -20 6 -3 7 -4 2 -4 -10 1 -12 4 -20 8
-17 4 2 10 -3 13 -12 4 -9 9 -14 13 -10 3 3 18 -1 32 -11 18 -11 23 -12 15 -2
-15 19 -14 52 1 39 7 -5 16 -6 20 -2 5 4 5 1 1 -6 -4 -7 -13 -10 -19 -6 -7 3
-5 0 4 -8 9 -7 14 -20 12 -28 -2 -8 3 -4 11 10 10 16 16 20 16 10 1 -10 4 -9
10 5 l9 20 0 -20 c1 -17 3 -17 11 -5 7 11 10 11 10 2 0 -7 4 -11 9 -8 5 4 7
-4 4 -16 -4 -19 -3 -20 6 -8 9 13 11 12 11 -3 0 -10 5 -15 10 -12 6 3 10 -1
10 -10 0 -10 -5 -14 -12 -9 -10 5 -10 4 -1 -6 6 -7 9 -20 6 -29 -4 -9 -3 -13
1 -9 7 5 13 26 15 51 1 4 8 7 16 7 17 0 20 -25 5 -35 -5 -3 -15 -16 -21 -28
-11 -21 -10 -20 16 3 l28 25 -18 -34 c-9 -18 -12 -30 -5 -26 25 15 109 236
128 335 6 30 16 96 22 147 23 183 -28 467 -114 637 -25 50 -44 92 -42 94 2 2
43 -25 90 -60 66 -48 92 -74 108 -108 12 -25 34 -63 48 -85 69 -102 121 -232
145 -365 17 -88 19 -269 5 -357 -28 -171 -118 -357 -280 -575 -42 -56 -54 -62
-83 -44 -12 8 -85 41 -162 75 -370 160 -800 211 -1300 155 -214 -24 -506 -86
-685 -145 -63 -21 -115 -37 -117 -35 -14 14 -87 236 -107 328 -58 256 -58 593
-1 826 14 57 32 136 40 175 17 84 66 249 72 243 3 -2 0 -39 -6 -83z m639 -124
c158 -36 219 -297 112 -480 -50 -84 -67 -93 -170 -90 -47 1 -121 74 -158 154
-24 52 -28 75 -28 142 0 138 52 240 139 270 48 17 49 17 105 4z m35 -638 c3
-5 2 -12 -3 -15 -5 -3 -9 1 -9 9 0 17 3 19 12 6z m-34 -24 c-10 -9 -11 -8 -5
6 3 10 9 15 12 12 3 -3 0 -11 -7 -18z m-34 -2 c0 -8 -4 -12 -9 -9 -5 3 -6 10
-3 15 9 13 12 11 12 -6z m-96 -88 c-6 -8 -7 -18 -3 -22 4 -5 1 -5 -6 -1 -10 6
-10 11 -1 22 6 8 14 14 16 14 3 0 0 -6 -6 -13z m49 -3 c0 -8 -19 -13 -24 -6
-3 5 1 9 9 9 8 0 15 -2 15 -3z m1330 -64 c0 -5 -2 -10 -4 -10 -3 0 -8 5 -11
10 -3 6 -1 10 4 10 6 0 11 -4 11 -10z m49 -6 c1 11 4 17 7 13 9 -9 -6 -48 -17
-42 -5 4 -9 16 -8 28 0 21 1 21 9 2 8 -19 9 -19 9 -1z m-1549 -9 c0 -7 -30
-13 -34 -7 -3 4 4 9 15 9 10 1 19 0 19 -2z"/>
<path d="M15533 12591 c-9 -11 -21 -17 -26 -14 -5 3 -4 -3 2 -14 7 -14 7 -24
-2 -33 -10 -12 -9 -12 5 -1 9 7 14 20 12 29 -5 15 -3 14 9 -1 15 -18 15 -17
22 3 6 20 8 20 19 4 9 -12 15 -14 20 -6 9 15 -2 34 -15 27 -5 -4 -9 1 -9 9 0
22 -17 20 -37 -3z m18 -4 c-6 -8 -7 -18 -3 -22 4 -5 1 -5 -6 -1 -10 6 -10 11
-1 22 6 8 14 14 16 14 3 0 0 -6 -6 -13z"/>
<path d="M15371 12494 c0 -11 3 -14 6 -6 3 7 2 16 -1 19 -3 4 -6 -2 -5 -13z"/>
<path d="M16347 12379 c7 -7 15 -10 18 -7 3 3 -2 9 -12 12 -14 6 -15 5 -6 -5z"/>
<path d="M16526 12361 c-13 -14 -14 -21 -5 -27 7 -4 10 -3 6 3 -8 13 17 36 28
25 5 -4 5 -1 1 6 -9 16 -10 15 -30 -7z"/>
<path d="M16881 12344 c-1 -6 5 -16 12 -22 10 -8 13 -6 14 11 2 15 0 18 -6 8
-7 -11 -9 -11 -14 0 -3 8 -6 9 -6 3z"/>
<path d="M16432 12319 c3 -10 23 -14 67 -15 34 -1 64 -4 68 -8 3 -3 17 -6 30
-6 13 0 22 -4 18 -9 -3 -5 -1 -12 4 -15 5 -3 11 1 15 9 4 10 -3 17 -22 21 -15
3 -34 8 -42 11 -8 3 -24 7 -35 8 -11 1 -40 6 -64 10 -35 6 -43 5 -39 -6z"/>
<path d="M16720 12288 c0 -8 6 -15 13 -15 6 -1 32 -4 57 -8 77 -11 112 -13
105 -7 -3 4 -16 7 -28 8 -66 5 -121 15 -133 25 -11 9 -14 8 -14 -3z"/>
<path d="M16678 12283 c6 -2 18 -2 25 0 6 3 1 5 -13 5 -14 0 -19 -2 -12 -5z"/>
<path d="M16835 11990 c-3 -6 1 -7 9 -4 18 7 21 14 7 14 -6 0 -13 -4 -16 -10z"/>
<path d="M19105 15679 c-4 -6 -5 -12 -2 -15 2 -3 7 2 10 11 7 17 1 20 -8 4z"/>
<path d="M19082 15629 c-15 -24 -33 -69 -28 -69 6 0 47 82 44 86 -2 2 -9 -6
-16 -17z"/>
<path d="M19166 15543 c-6 -14 -5 -15 5 -6 7 7 10 15 7 18 -3 3 -9 -2 -12 -12z"/>
<path d="M19040 15546 c0 -2 -7 -20 -15 -40 -20 -48 -12 -46 13 4 11 22 16 40
11 40 -5 0 -9 -2 -9 -4z"/>
<path d="M18961 15372 c-18 -37 -28 -62 -23 -57 14 14 65 116 60 120 -2 3 -19
-26 -37 -63z"/>
<path d="M19083 15353 c-3 -10 -8 -22 -11 -27 -3 -5 0 -6 5 -3 11 7 25 47 17
47 -3 0 -7 -8 -11 -17z"/>
<path d="M19057 15303 c-4 -3 -7 -11 -7 -17 0 -6 5 -5 12 2 6 6 9 14 7 17 -3
3 -9 2 -12 -2z"/>
<path d="M18916 15283 c-6 -14 -5 -15 5 -6 7 7 10 15 7 18 -3 3 -9 -2 -12 -12z"/>
<path d="M18876 15205 c-3 -9 -6 -22 -5 -28 0 -7 5 -1 10 12 5 13 8 26 5 28
-2 2 -6 -3 -10 -12z"/>
<path d="M19006 15193 c-6 -14 -5 -15 5 -6 7 7 10 15 7 18 -3 3 -9 -2 -12 -12z"/>
<path d="M18980 15140 c-6 -11 -8 -20 -6 -20 3 0 10 9 16 20 6 11 8 20 6 20
-3 0 -10 -9 -16 -20z"/>
<path d="M18816 15053 c-6 -14 -5 -15 5 -6 7 7 10 15 7 18 -3 3 -9 -2 -12 -12z"/>
<path d="M18930 15040 c-6 -11 -8 -20 -6 -20 3 0 10 9 16 20 6 11 8 20 6 20
-3 0 -10 -9 -16 -20z"/>
<path d="M18906 14993 c-6 -14 -5 -15 5 -6 7 7 10 15 7 18 -3 3 -9 -2 -12 -12z"/>
<path d="M18767 14963 c3 -7 0 -13 -6 -13 -6 0 -11 -8 -10 -17 0 -12 2 -13 6
-5 4 10 8 10 19 1 12 -9 18 -9 27 0 9 10 9 12 -3 9 -10 -2 -15 4 -14 18 0 11
-5 21 -12 21 -7 0 -10 -6 -7 -14z"/>
<path d="M18885 14959 c-4 -6 -5 -12 -2 -15 2 -3 7 2 10 11 7 17 1 20 -8 4z"/>
<path d="M11268 14864 c-255 -238 -481 -357 -833 -438 -60 -14 -171 -39 -245
-56 -74 -17 -162 -44 -195 -60 l-60 -30 285 4 c272 3 289 4 385 30 194 52 376
132 520 229 88 59 250 201 275 242 12 19 26 35 31 35 5 0 9 7 9 15 0 8 4 15 9
15 5 0 13 14 16 32 6 27 3 36 -19 55 -47 40 -67 31 -178 -73z"/>
<path d="M18816 14812 c-8 -16 -22 -34 -30 -41 -9 -8 -16 -18 -16 -23 0 -18
24 8 48 51 13 23 21 41 18 41 -3 0 -12 -13 -20 -28z"/>
<path d="M11429 14793 c-14 -16 -31 -40 -39 -55 -7 -15 -21 -30 -31 -33 -10
-3 -21 -15 -24 -26 -4 -10 -11 -19 -16 -19 -6 0 -7 -4 -4 -10 3 -5 1 -10 -5
-10 -6 0 -23 -11 -38 -25 -20 -19 -22 -24 -8 -19 15 6 17 4 12 -7 -5 -8 23 18
60 57 56 57 137 174 121 174 -2 0 -14 -12 -28 -27z"/>
<path d="M14776 14729 c-47 -37 -29 -101 60 -210 246 -300 598 -485 1009 -528
293 -31 386 -42 401 -48 11 -4 15 -2 11 4 -17 27 -140 77 -308 123 -529 146
-752 264 -959 505 -167 195 -164 193 -214 154z"/>
<path d="M11230 14580 c0 -5 5 -10 11 -10 5 0 7 5 4 10 -3 6 -8 10 -11 10 -2
0 -4 -4 -4 -10z"/>
<path d="M11182 14540 c-34 -21 -40 -30 -19 -30 14 1 62 39 55 45 -2 2 -18 -5
-36 -15z"/>
<path d="M11023 14456 c-13 -6 -23 -14 -23 -19 0 -9 36 9 45 23 3 6 5 9 3 9
-2 -1 -13 -6 -25 -13z"/>
<path d="M14850 14453 c0 -11 48 -58 53 -52 2 2 -9 17 -25 33 -15 16 -28 25
-28 19z"/>
<path d="M14866 14377 c3 -10 9 -15 12 -12 3 3 0 11 -7 18 -10 9 -11 8 -5 -6z"/>
<path d="M14910 14379 c0 -5 5 -7 10 -4 6 3 10 8 10 11 0 2 -4 4 -10 4 -5 0
-10 -5 -10 -11z"/>
<path d="M14890 14360 c0 -5 16 -21 35 -36 28 -21 39 -24 48 -15 9 10 9 11 -3
6 -9 -3 -29 7 -48 24 -17 17 -32 26 -32 21z"/>
<path d="M14975 14290 c-4 -6 1 -7 11 -3 13 5 15 3 9 -8 -4 -8 -5 -11 -1 -8 4
4 20 -7 37 -23 17 -18 36 -28 44 -24 8 3 15 1 15 -5 0 -6 5 -7 11 -3 8 4 7 9
-2 15 -7 4 -17 5 -21 3 -4 -3 -8 0 -8 5 0 6 -5 11 -10 11 -6 0 -22 11 -36 25
-27 27 -39 31 -49 15z"/>
<path d="M12049 14063 l-24 -28 28 24 c25 23 32 31 24 31 -2 0 -14 -12 -28
-27z"/>
<path d="M18800 13961 c0 -6 5 -13 10 -16 6 -3 10 1 10 9 0 9 -4 16 -10 16 -5
0 -10 -4 -10 -9z"/>
<path d="M18752 13900 c0 -14 2 -19 5 -12 2 6 2 18 0 25 -3 6 -5 1 -5 -13z"/>
<path d="M18801 13706 c1 -97 5 -179 10 -181 4 -3 8 73 9 169 0 117 -3 177
-10 181 -8 5 -11 -44 -9 -169z"/>
<path d="M18750 13866 c0 -2 7 -7 16 -10 8 -3 12 -2 9 4 -6 10 -25 14 -25 6z"/>
<path d="M18770 13829 c0 -5 -5 -7 -12 -3 -7 5 -8 3 -2 -7 4 -8 10 -32 11 -53
5 -63 12 -54 10 13 -1 34 -3 61 -4 61 -2 0 -3 -5 -3 -11z"/>
<path d="M11655 13790 c-18 -6 -18 -7 3 -12 12 -3 26 0 31 6 12 14 -3 17 -34
6z"/>
<path d="M11615 13780 c-4 -6 -10 -8 -14 -6 -4 3 -8 -1 -8 -9 0 -13 4 -12 19
2 18 16 22 23 14 23 -3 0 -8 -5 -11 -10z"/>
<path d="M11645 13760 c-4 -6 -3 -16 3 -22 6 -6 12 -6 17 2 4 6 3 16 -3 22 -6
6 -12 6 -17 -2z"/>
<path d="M11681 13753 c1 -5 0 -10 -1 -13 -7 -16 -5 -78 2 -73 5 3 7 8 4 11
-3 3 -1 11 5 19 8 9 15 10 24 3 10 -8 15 -8 21 1 4 8 3 9 -4 5 -6 -4 -18 6
-27 24 -15 28 -26 39 -24 23z m10 -46 c-10 -9 -11 -8 -5 6 3 10 9 15 12 12 3
-3 0 -11 -7 -18z"/>
<path d="M7920 13719 c37 -25 90 -49 90 -40 0 6 -21 19 -46 31 -50 22 -68 26
-44 9z"/>
<path d="M11628 13723 c6 -2 10 -9 7 -14 -4 -5 1 -6 10 -2 13 5 14 7 3 14 -7
5 -17 8 -23 8 -5 0 -4 -3 3 -6z"/>
<path d="M8094 13647 c-4 -7 -4 -9 1 -5 4 4 13 1 19 -6 7 -9 18 -11 30 -7 18
7 16 9 -12 19 -24 8 -33 8 -38 -1z"/>
<path d="M8542 13518 c2 -8 -4 -12 -17 -10 -11 2 -17 1 -13 -3 3 -3 12 -7 20
-9 27 -4 40 -17 28 -31 -8 -10 -6 -13 7 -11 10 0 26 13 36 29 23 36 22 42 -4
16 -16 -16 -23 -18 -35 -9 -7 7 -12 16 -9 20 3 5 1 12 -5 15 -6 4 -9 1 -8 -7z"/>
<path d="M14309 13493 c-13 -16 -12 -17 4 -4 9 7 17 15 17 17 0 8 -8 3 -21
-13z"/>
<path d="M18805 13501 c-3 -5 -2 -12 3 -15 5 -3 9 1 9 9 0 17 -3 19 -12 6z"/>
<path d="M14280 13381 c0 -5 7 -11 14 -14 10 -4 13 -1 9 9 -6 15 -23 19 -23 5z"/>
<path d="M6300 13375 c0 -2 -18 -54 -39 -115 -22 -60 -36 -110 -31 -110 4 0
11 12 15 28 3 15 17 47 29 72 21 42 42 130 31 130 -3 0 -5 -2 -5 -5z"/>
<path d="M14260 13371 c0 -6 4 -13 10 -16 6 -3 7 1 4 9 -7 18 -14 21 -14 7z"/>
<path d="M18805 13323 c0 -32 -3 -68 -7 -81 -5 -13 -4 -21 1 -18 5 4 8 -9 7
-26 -1 -18 1 -40 5 -48 3 -8 9 -28 13 -43 5 -22 4 -27 -6 -21 -8 5 -6 -2 4
-18 9 -14 24 -53 32 -86 18 -69 19 -75 8 -68 -5 3 -9 -1 -9 -9 0 -11 4 -12 14
-4 10 9 14 7 19 -7 4 -11 9 -23 12 -28 3 -5 1 -6 -4 -3 -6 3 -10 -3 -11 -13
-1 -11 2 -22 8 -25 5 -3 7 2 4 12 -3 10 1 5 9 -12 8 -16 10 -31 5 -33 -5 -2
-4 -12 1 -23 6 -10 8 -19 4 -19 -3 0 -2 -6 4 -13 6 -7 7 -18 3 -26 -7 -11 -11
-10 -19 5 -5 11 -7 25 -5 32 3 6 0 12 -5 12 -5 0 -13 12 -18 28 -4 15 -8 29
-9 32 -1 3 -9 23 -19 45 -10 22 -18 59 -19 82 -1 23 -6 41 -12 40 -5 -1 -9 8
-8 21 2 12 -1 22 -6 22 -28 0 34 -192 142 -445 89 -210 121 -289 153 -375 15
-41 39 -98 55 -127 16 -30 24 -55 18 -58 -5 -4 -6 -11 -3 -17 4 -6 2 -8 -4 -4
-6 3 -13 -2 -15 -11 -4 -17 -5 -17 -6 0 0 9 -5 17 -11 17 -5 0 -10 5 -10 11 0
5 4 8 9 4 37 -22 2 42 -125 232 -80 120 -142 207 -138 193 4 -14 13 -46 20
-73 14 -55 36 -94 153 -273 47 -72 115 -192 151 -267 61 -128 91 -173 75 -109
-4 15 -11 79 -15 142 -12 149 -78 391 -154 560 -32 73 -166 391 -166 395 0 3
-8 24 -19 48 -24 54 -58 170 -67 225 -4 24 -13 50 -21 58 -8 8 -10 14 -5 14 5
0 8 10 7 23 -1 12 -3 59 -4 105 0 45 -5 82 -9 82 -4 0 -8 -26 -7 -57z m132
-573 c-2 -23 -10 -17 -12 10 -1 10 2 17 6 14 4 -2 7 -13 6 -24z m31 -55 c10
-21 9 -25 -3 -25 -19 0 -19 -9 1 -49 10 -20 21 -30 30 -27 18 7 18 1 -1 -18
-13 -12 -14 -20 -5 -38 10 -21 10 -21 -9 2 -11 14 -16 27 -11 28 6 2 10 8 10
13 0 6 -4 8 -8 5 -14 -9 -55 89 -47 113 9 28 29 27 43 -4z m26 -85 c-7 -6 -24
22 -23 40 0 9 6 5 14 -10 7 -14 11 -27 9 -30z m17 -57 c-12 -20 -14 -14 -5 12
4 9 9 14 11 11 3 -2 0 -13 -6 -23z m22 -16 c3 -8 -1 -14 -8 -14 -7 0 -11 6 -8
14 3 7 6 13 8 13 2 0 5 -6 8 -13z m-59 -260 c14 -20 21 -37 15 -37 -6 0 -7 -5
-4 -10 4 -6 10 -8 15 -5 5 3 11 1 14 -4 7 -10 -13 -9 -30 2 -6 3 -14 20 -18
37 -3 17 -10 29 -16 25 -6 -4 -7 1 -3 11 4 11 3 15 -5 10 -6 -3 -13 -2 -16 3
-4 5 1 8 9 7 8 -1 26 -19 39 -39z m95 -151 c-3 -3 -11 5 -18 17 -13 21 -12 21
5 5 10 -10 16 -20 13 -22z m51 -71 c14 -19 14 -19 -2 -6 -10 7 -18 18 -18 24
0 6 1 8 3 6 1 -2 9 -13 17 -24z"/>
<path d="M18936 12695 c-3 -8 -1 -15 4 -15 6 0 10 7 10 15 0 8 -2 15 -4 15 -2
0 -6 -7 -10 -15z"/>
<path d="M14290 13326 c0 -2 8 -10 18 -17 15 -13 16 -12 3 4 -13 16 -21 21
-21 13z"/>
<path d="M14381 13228 c66 -63 106 -98 113 -98 15 0 -2 44 -24 63 l-25 22 24
-27 c14 -16 20 -28 14 -28 -17 0 -73 56 -65 65 4 5 2 5 -4 2 -6 -4 -22 5 -35
19 -13 14 -33 30 -44 36 -11 5 10 -19 46 -54z"/>
<path d="M17860 13281 c-8 -6 -18 -7 -24 -4 -5 3 -6 1 -2 -5 5 -8 13 -9 24 -3
9 4 24 11 32 14 13 5 13 5 0 6 -8 0 -22 -3 -30 -8z"/>
<path d="M17385 13241 c-3 -5 -2 -12 3 -15 5 -3 9 1 9 9 0 17 -3 19 -12 6z"/>
<path d="M6291 13208 c-7 -18 -17 -41 -22 -50 -12 -23 -12 -35 0 -22 11 10 42
97 37 101 -2 2 -9 -11 -15 -29z"/>
<path d="M17370 13211 c0 -6 4 -13 10 -16 6 -3 7 1 4 9 -7 18 -14 21 -14 7z"/>
<path d="M17417 13183 c-10 -9 -9 -33 1 -33 4 0 8 9 8 20 0 23 0 22 -9 13z"/>
<path d="M17386 13167 c3 -10 9 -15 12 -12 3 3 0 11 -7 18 -10 9 -11 8 -5 -6z"/>
<path d="M17439 13179 c-10 -48 -9 -57 10 -52 10 3 22 14 24 25 3 11 3 17 0
14 -4 -3 -12 -1 -20 5 -7 6 -13 10 -14 8z m19 -34 c-3 -3 -9 2 -12 12 -6 14
-5 15 5 6 7 -7 10 -15 7 -18z"/>
<path d="M18763 13155 c-3 -9 -3 -18 -1 -21 3 -3 8 4 11 16 6 23 -1 27 -10 5z"/>
<path d="M6230 13054 c-23 -51 -28 -69 -19 -82 9 -15 10 -14 6 3 -2 11 2 26
10 33 7 7 13 24 13 37 0 13 4 26 9 29 9 6 22 46 15 46 -2 0 -17 -30 -34 -66z"/>
<path d="M6196 13095 c-9 -26 -7 -32 5 -12 6 10 9 21 6 23 -2 3 -7 -2 -11 -11z"/>
<path d="M6142 12975 c-12 -25 -22 -51 -22 -58 1 -6 12 12 26 42 14 29 23 55
21 57 -2 2 -13 -17 -25 -41z"/>
<path d="M6190 12944 c0 -8 5 -12 10 -9 6 4 8 11 5 16 -9 14 -15 11 -15 -7z"/>
<path d="M6084 12848 c-14 -29 -21 -48 -14 -41 13 12 52 93 45 93 -3 0 -16
-24 -31 -52z"/>
<path d="M6134 12787 c-15 -55 -47 -142 -60 -159 -6 -7 -17 -33 -25 -58 -14
-44 -15 -50 -18 -70 0 -5 -9 -10 -18 -10 -12 0 -14 -3 -6 -8 8 -5 8 -15 -2
-39 -13 -30 -34 -38 -52 -18 -4 4 -2 5 5 1 8 -5 13 -3 11 5 -3 27 1 38 27 69
15 17 24 34 20 37 -3 4 -6 1 -6 -5 0 -7 -4 -12 -10 -12 -5 0 -7 8 -4 18 5 13
4 14 -4 3 -6 -8 -8 -20 -6 -26 3 -7 -1 -15 -9 -18 -9 -3 -30 -33 -48 -67 -30
-57 -52 -80 -65 -68 -2 3 13 41 35 84 21 43 47 98 58 120 17 37 21 40 31 25
10 -13 11 -12 2 6 -14 31 -12 37 8 22 15 -13 16 -12 3 4 -12 15 -12 20 2 35
15 17 17 20 17 45 0 8 4 7 11 -3 9 -13 10 -13 6 0 -2 8 4 32 15 53 10 20 15
37 10 37 -4 0 -15 -15 -23 -32 -8 -18 -47 -97 -87 -174 -92 -182 -185 -410
-176 -437 4 -11 2 -17 -3 -14 -6 4 -15 -11 -22 -32 -14 -48 -14 -52 2 -48 11
2 12 -2 0 -48 -3 -11 -5 -30 -4 -43 0 -13 -3 -21 -8 -17 -6 3 -8 14 -6 25 2
11 0 22 -4 25 -5 2 -11 -8 -13 -25 -2 -16 -1 -27 4 -24 4 3 8 -5 8 -16 0 -17
4 -21 17 -16 16 6 16 6 0 -12 -9 -10 -14 -21 -11 -25 11 -11 13 -97 2 -97 -6
0 -8 -7 -4 -15 3 -8 3 -22 0 -30 -6 -14 -8 -13 -19 2 -7 10 -11 21 -9 24 2 4
6 45 7 91 3 49 1 72 -4 55 -10 -39 -19 -198 -10 -193 4 3 6 -15 5 -39 -1 -25
1 -47 6 -50 13 -8 22 29 15 62 -4 18 -3 23 2 15 7 -9 17 10 33 60 24 73 70
178 148 336 27 54 36 82 27 82 -7 0 -16 -11 -19 -24 -9 -38 -107 -236 -116
-236 -5 0 -12 5 -16 12 -4 6 -3 8 3 5 6 -4 16 12 23 38 7 25 19 49 26 53 7 4
15 19 16 32 2 14 10 30 19 37 9 7 19 25 22 40 3 15 20 44 37 63 19 21 38 61
51 105 32 107 83 257 133 390 25 65 42 123 38 127 -4 4 -12 -11 -18 -35z
m-276 -478 c-11 -21 -24 -39 -30 -39 -5 0 -7 4 -4 9 11 16 29 66 28 73 -1 4 5
5 13 2 11 -5 10 -12 -7 -45z m-38 -88 c-6 -12 -8 -27 -4 -33 4 -7 3 -8 -4 -4
-7 4 -12 0 -13 -11 0 -10 -3 -13 -5 -6 -6 13 26 87 33 79 3 -2 0 -14 -7 -25z
m-44 -131 c0 -16 -5 -25 -9 -21 -5 5 -6 18 -2 30 9 29 13 26 11 -9z m7 -187
c-7 -2 -13 -9 -13 -14 0 -6 5 -7 10 -4 14 9 12 -12 -5 -44 -8 -16 -11 -31 -8
-35 4 -3 1 -6 -6 -6 -7 0 -11 6 -8 13 20 49 20 50 6 42 -11 -7 -12 -6 -2 7 7
8 10 18 7 21 -9 8 5 27 19 26 9 0 9 -2 0 -6z"/>
<path d="M6202 12578 c-7 -13 -19 -33 -28 -46 -10 -13 -13 -22 -8 -20 9 3 14
-4 14 -23 0 -8 -4 -8 -14 0 -10 9 -19 4 -40 -23 -36 -47 -33 -58 3 -12 16 20
32 32 35 27 4 -5 1 -13 -5 -17 -6 -3 -20 -26 -31 -50 -10 -24 -23 -44 -28 -44
-6 0 -10 -8 -10 -17 -1 -17 -1 -17 -11 0 -6 9 -7 27 -4 40 5 17 4 19 -4 7 -6
-8 -11 -24 -11 -35 0 -17 -2 -17 -10 -5 -8 12 -10 10 -10 -8 0 -13 -4 -21 -8
-18 -5 3 -23 -29 -41 -71 -29 -67 -31 -78 -18 -91 19 -18 40 -6 34 19 -3 11
-1 17 4 13 5 -3 9 1 9 8 0 15 39 68 40 53 0 -5 -16 -43 -36 -83 -27 -55 -39
-70 -46 -60 -7 9 -8 8 -4 -6 4 -10 2 -24 -3 -30 -11 -14 -54 -166 -48 -172 3
-3 8 8 12 23 3 15 28 73 54 128 26 55 54 116 61 135 8 19 43 93 78 164 54 109
97 224 88 234 -2 1 -8 -8 -14 -20z"/>
<path d="M12875 12309 c-16 -5 -40 -7 -52 -4 -13 2 -23 0 -23 -5 0 -5 -10 -11
-22 -13 -13 -3 27 -3 87 0 61 2 116 6 123 8 15 5 16 25 1 25 -5 0 -7 -4 -4
-10 3 -5 1 -10 -4 -10 -6 0 -11 6 -11 13 0 8 -4 7 -10 -3 -9 -13 -10 -13 -10
0 0 13 -1 13 -10 0 -9 -13 -10 -13 -10 0 0 12 -2 13 -9 1 -5 -7 -10 -9 -12 -4
-2 6 -16 6 -34 2z"/>
<path d="M13007 12307 c-8 -22 -4 -23 83 -32 87 -8 261 -45 351 -74 61 -21 89
-22 52 -3 -44 23 -235 82 -245 76 -7 -4 -8 -3 -4 4 5 8 -2 12 -21 12 -15 0
-44 4 -62 10 -25 7 -39 6 -50 -3 -10 -8 -12 -8 -8 -1 5 8 -6 13 -32 16 -22 2
-37 0 -35 -4 3 -5 1 -8 -5 -8 -5 0 -11 5 -13 12 -3 8 -7 6 -11 -5z"/>
<path d="M18870 12085 c0 -4 7 -19 15 -35 8 -16 13 -35 10 -42 -8 -19 96 -215
178 -337 89 -134 139 -241 167 -361 43 -183 41 -178 52 -150 5 13 8 36 6 50
-1 14 1 31 6 39 12 19 -3 165 -25 235 -32 106 -106 221 -304 477 -41 53 -77
104 -81 113 -6 15 -24 23 -24 11z"/>
<path d="M6083 12008 c-90 -114 -133 -177 -131 -190 2 -7 -3 -12 -9 -11 -16 4
-46 -54 -39 -73 3 -8 2 -13 -3 -9 -10 6 -17 -18 -31 -120 -6 -48 -6 -71 2 -76
7 -4 6 -8 -3 -12 -10 -4 -10 -6 -2 -6 9 -1 10 -7 2 -23 -6 -15 -7 -37 0 -63 9
-38 9 -39 10 -9 1 18 10 60 21 95 22 68 142 311 156 316 5 2 10 -43 11 -100 3
-189 41 -359 119 -522 18 -38 30 -73 26 -77 -4 -4 -77 -33 -162 -64 -85 -31
-182 -67 -215 -81 -79 -33 -265 -123 -265 -128 0 -5 -3 -6 205 78 274 111 549
198 531 168 -4 -6 -18 -11 -32 -11 -13 0 -24 -6 -24 -13 0 -25 231 -351 274
-386 9 -7 16 -17 16 -22 0 -4 -38 -26 -84 -47 -46 -22 -86 -44 -90 -51 -10
-16 -7 -15 75 23 117 53 114 53 167 10 26 -21 79 -66 117 -100 81 -70 287
-242 395 -329 41 -32 119 -104 172 -159 54 -55 100 -98 102 -95 9 9 -23 82
-70 161 -58 97 -143 190 -280 307 -55 47 -158 135 -228 195 -70 60 -124 112
-119 117 4 4 36 15 71 24 35 9 125 38 200 64 307 108 727 204 1467 336 189 33
103 30 -120 -5 -381 -60 -663 -112 -870 -161 -216 -52 -522 -139 -593 -169
-37 -15 -94 -36 -126 -45 l-59 -17 -34 38 c-129 149 -263 331 -263 358 0 12
134 44 460 111 227 46 401 74 640 100 80 9 159 18 175 20 114 15 924 56 1025
51 25 -1 59 1 75 5 45 10 -436 10 -705 -1 -379 -15 -669 -44 -1100 -110 -110
-17 -407 -83 -500 -111 -19 -6 -50 -11 -68 -12 -33 -2 -33 -1 -78 103 -87 204
-147 421 -169 607 -1 12 2 20 7 17 5 -3 7 -11 5 -18 -3 -6 2 -17 10 -25 12
-11 13 -8 7 26 -3 21 -10 43 -15 49 -5 6 -6 14 -3 17 9 8 11 117 2 117 -3 0
-28 -28 -55 -62z m1072 -1828 c10 -11 16 -20 13 -20 -3 0 -13 9 -23 20 -10 11
-16 20 -13 20 3 0 13 -9 23 -20z"/>
<path d="M12527 12058 c-86 -4 -166 -12 -177 -18 -25 -13 -27 -70 -5 -155 39
-146 135 -259 253 -295 37 -11 94 -24 126 -28 l59 -7 -2 -155 c-2 -131 -4
-157 -18 -167 -9 -7 -24 -13 -33 -13 -24 0 -151 -63 -230 -116 -99 -65 -221
-183 -315 -304 -89 -115 -114 -131 -239 -157 -148 -29 -357 -2 -503 67 -35 16
-63 26 -63 22 1 -8 55 -48 135 -100 115 -75 312 -109 460 -78 134 28 187 57
375 206 231 184 416 300 480 300 36 0 168 -41 280 -87 116 -48 213 -98 353
-181 152 -91 215 -113 343 -119 122 -7 177 10 74 22 -139 16 -208 55 -365 205
-119 114 -166 148 -288 205 -114 54 -220 89 -314 105 l-71 12 -2 169 -1 169
53 0 c29 0 93 7 141 14 97 16 158 45 203 98 78 93 135 321 86 347 -60 32 -496
54 -795 39z"/>
<path d="M5731 12024 c0 -11 3 -14 6 -6 3 7 2 16 -1 19 -3 4 -6 -2 -5 -13z"/>
<path d="M9308 11883 c7 -3 16 -2 19 1 4 3 -2 6 -13 5 -11 0 -14 -3 -6 -6z"/>
<path d="M9250 11870 c-23 -7 -23 -8 -3 -9 12 -1 25 4 28 9 3 6 5 10 3 9 -2
-1 -14 -5 -28 -9z"/>
<path d="M9170 11850 c-8 -5 -10 -10 -5 -10 6 0 17 5 25 10 8 5 11 10 5 10 -5
0 -17 -5 -25 -10z"/>
<path d="M6162 11820 c0 -14 2 -19 5 -12 2 6 2 18 0 25 -3 6 -5 1 -5 -13z"/>
<path d="M9013 11800 c-34 -14 -28 -21 7 -9 17 6 30 13 30 15 0 6 -12 4 -37
-6z"/>
<path d="M9316 11798 c3 -5 10 -6 15 -3 13 9 11 12 -6 12 -8 0 -12 -4 -9 -9z"/>
<path d="M8910 11760 c-8 -5 -10 -10 -5 -10 6 0 17 5 25 10 8 5 11 10 5 10 -5
0 -17 -5 -25 -10z"/>
<path d="M18970 11703 c0 -13 9 -49 19 -80 39 -114 84 -372 85 -483 1 -58 -2
-118 -6 -135 -5 -21 -1 -16 13 15 43 92 49 300 14 420 -26 87 -85 233 -106
260 l-19 25 0 -22z"/>
<path d="M18945 11593 c-10 -32 -17 -79 -16 -104 2 -34 -2 -48 -13 -52 -9 -4
-13 -15 -11 -27 2 -11 -1 -20 -6 -20 -6 0 -8 -4 -5 -8 3 -5 0 -26 -6 -48 -7
-21 -12 -41 -13 -44 -1 -3 -9 -22 -18 -44 -9 -21 -17 -43 -17 -48 0 -5 -4 -6
-10 -3 -5 3 -7 0 -4 -9 7 -18 -14 -59 -26 -51 -4 3 0 28 11 57 10 28 16 54 14
57 -3 2 -5 0 -5 -6 0 -5 -9 -20 -20 -33 -11 -13 -20 -28 -20 -34 0 -6 5 -4 10
4 5 8 10 10 10 4 0 -18 -12 -24 -26 -13 -10 8 -12 6 -9 -10 2 -11 -1 -23 -6
-26 -5 -4 -16 -22 -24 -41 -8 -19 -22 -37 -32 -41 -10 -3 -27 -13 -38 -22 -18
-15 -19 -15 -6 2 7 9 9 17 3 17 -5 0 -12 -6 -15 -14 -7 -18 24 -46 51 -46 12
0 22 -4 22 -8 0 -9 -8 -8 -235 33 -187 33 -216 38 -505 71 -135 15 -238 31
-242 38 -5 8 -12 6 -23 -5 -13 -13 -27 -14 -73 -8 -97 13 -282 29 -394 34 -59
3 -120 10 -134 16 -16 5 -179 11 -388 14 -397 4 -400 -6 -6 -24 129 -6 253
-13 275 -16 22 -3 171 -14 330 -25 160 -11 297 -22 305 -25 8 -2 53 -7 100
-10 156 -11 580 -68 675 -90 11 -2 49 -12 85 -20 36 -9 83 -19 104 -22 37 -5
84 -33 56 -33 -6 0 -9 -4 -6 -8 13 -22 -244 -319 -266 -306 -4 3 -5 11 -1 17
5 9 3 9 -8 0 -16 -13 -68 2 -354 102 -82 29 -190 65 -240 80 -49 15 -157 48
-240 75 -256 83 -772 227 -780 218 -2 -2 94 -34 213 -71 119 -38 258 -82 307
-98 92 -31 164 -54 480 -154 181 -58 370 -119 479 -157 51 -18 56 -22 40 -31
-16 -9 -128 -104 -223 -189 -168 -151 -652 -435 -979 -574 -185 -80 -670 -242
-1262 -424 -115 -35 -190 -65 -283 -112 -31 -15 -32 -1 -3 42 14 22 26 43 26
48 0 9 -184 -27 -555 -108 -104 -23 -296 -63 -425 -90 -285 -59 -361 -78 -419
-102 -63 -27 -61 -15 3 22 31 17 58 35 61 40 3 5 29 25 58 44 29 19 69 52 89
73 l37 38 -37 -2 c-99 -4 -647 -63 -777 -83 -86 -14 -423 -48 -540 -55 -55 -4
-110 -8 -123 -10 -40 -6 -482 -20 -647 -20 -167 0 -556 12 -660 20 -33 3 -125
10 -205 16 -281 20 -391 35 -840 115 -47 8 -224 47 -395 86 -294 67 -574 127
-603 128 -7 0 -10 -4 -7 -10 3 -5 17 -10 31 -10 15 0 24 -6 24 -16 0 -10 -6
-14 -17 -10 -10 3 -63 16 -118 30 -887 216 -1211 313 -1562 467 -298 131 -598
335 -728 493 -21 26 -40 44 -43 42 -2 -3 5 -36 17 -74 16 -53 37 -91 89 -159
95 -121 214 -215 412 -325 182 -100 592 -251 933 -343 31 -8 83 -22 115 -31
31 -8 152 -39 267 -69 406 -104 616 -161 664 -181 31 -13 34 -17 19 -25 -10
-6 -18 -15 -18 -20 0 -6 5 -7 10 -4 6 3 10 2 10 -3 0 -13 -25 -33 -33 -26 -7
7 -51 -62 -62 -96 -5 -18 15 -2 71 55 43 44 77 86 75 93 -1 10 3 10 16 3 10
-6 51 -20 91 -31 40 -12 121 -43 180 -69 59 -27 118 -52 132 -56 14 -4 30 -11
35 -15 6 -4 18 -10 28 -13 52 -19 -90 123 -172 173 -79 47 -256 128 -328 151
-58 18 -82 34 -70 45 14 14 247 -57 364 -111 210 -98 852 -231 1328 -274 349
-32 445 -36 860 -36 547 0 772 16 1325 91 368 49 513 66 556 62 l38 -3 -104
-91 c-58 -50 -115 -99 -128 -110 -13 -10 -28 -27 -33 -36 -8 -16 -7 -17 15 -9
13 6 49 12 80 15 31 3 96 12 144 20 48 8 164 27 257 41 396 61 625 107 834
166 57 16 105 28 107 26 2 -2 -25 -32 -59 -68 -82 -84 -141 -158 -134 -166 4
-3 12 -1 20 5 7 6 105 43 217 82 113 39 253 89 311 110 142 52 176 50 235 -16
24 -26 44 -53 44 -59 0 -5 14 -30 30 -55 16 -25 30 -42 30 -37 0 4 -12 25 -26
47 -32 48 -28 58 12 29 29 -21 29 -21 -1 4 -36 31 -66 60 -80 79 -16 19 -29
44 -20 36 4 -4 17 -3 28 3 10 6 17 7 14 2 -2 -4 -1 -17 4 -28 7 -19 8 -19 8
-1 1 16 3 17 18 5 15 -12 16 -12 8 1 -5 8 5 0 22 -17 28 -30 43 -38 66 -34 4
0 7 -4 7 -10 0 -5 5 -7 10 -4 6 3 10 1 10 -5 0 -6 4 -9 9 -6 5 4 11 0 14 -6 2
-7 7 -10 11 -7 6 6 -4 19 -36 44 -7 6 -23 10 -35 9 -16 -1 -20 4 -18 18 2 11
-3 22 -12 25 -14 6 -14 7 1 18 15 11 13 14 -14 23 -17 6 -38 8 -47 5 -11 -4
-14 -3 -9 5 9 14 -5 15 -56 3 -86 -20 -18 10 134 58 335 108 804 282 1103 410
212 91 500 249 698 383 198 133 308 218 481 372 38 33 78 69 89 79 14 12 30
16 48 12 34 -8 47 10 18 25 -20 11 -18 15 48 84 37 39 101 116 141 169 64 85
77 97 103 97 33 0 214 -36 397 -78 68 -16 119 -26 115 -22 -9 8 -68 26 -322
94 -90 25 -168 49 -173 54 -5 5 -1 18 10 33 30 38 111 193 137 263 38 101 95
369 82 382 -3 3 -13 -21 -22 -53z m-145 -472 c0 -5 -5 -11 -11 -13 -5 -2 -11
-10 -12 -18 -5 -32 -37 -57 -37 -29 0 5 5 7 10 4 8 -5 13 15 9 41 -1 8 22 24
34 24 4 0 7 -4 7 -9z m-490 -606 c0 -8 -4 -15 -10 -15 -5 0 -7 7 -4 15 4 8 8
15 10 15 2 0 4 -7 4 -15z m-30 -25 c0 -11 -5 -20 -11 -20 -7 0 -18 -8 -26 -17
-12 -16 -13 -15 -1 7 7 14 11 29 10 33 -1 5 2 6 8 2 5 -3 10 -1 10 4 0 6 2 11
5 11 3 0 5 -9 5 -20z m-91 -86 c-6 -7 -15 -11 -21 -8 -5 3 -4 12 3 20 6 7 15
11 21 8 5 -3 4 -12 -3 -20z m-51 -39 c-12 -14 -37 -34 -55 -45 l-34 -20 17 23
c17 22 72 64 86 66 5 1 -2 -10 -14 -24z m-2328 -1149 c0 -3 -4 -8 -10 -11 -5
-3 -10 -1 -10 4 0 6 5 11 10 11 6 0 10 -2 10 -4z m167 -12 c-3 -3 -12 -4 -19
-1 -8 3 -5 6 6 6 11 1 17 -2 13 -5z m-3 -50 c3 -8 2 -12 -4 -9 -6 3 -10 10
-10 16 0 14 7 11 14 -7z"/>
<path d="M17327 11419 c7 -7 15 -10 18 -7 3 3 -2 9 -12 12 -14 6 -15 5 -6 -5z"/>
<path d="M17490 11270 c12 -16 26 -30 33 -30 6 0 -2 14 -18 30 -16 17 -30 30
-33 30 -2 0 6 -13 18 -30z"/>
<path d="M12429 11094 c-23 -25 -23 -26 -2 -15 23 12 38 29 31 37 -3 2 -15 -8
-29 -22z"/>
<path d="M18682 11095 c-9 -20 -9 -23 4 -18 8 3 12 8 10 11 -3 3 -1 11 5 19 7
7 7 13 2 13 -5 0 -15 -11 -21 -25z"/>
<path d="M12329 11013 c-13 -16 -12 -17 4 -4 16 13 21 21 13 21 -2 0 -10 -8
-17 -17z"/>
<path d="M18617 10914 c-8 -8 1 -24 12 -24 4 0 8 7 8 15 0 16 -9 20 -20 9z"/>
<path d="M18515 10890 c-26 -29 -15 -32 15 -4 13 13 20 24 14 24 -6 0 -19 -9
-29 -20z"/>
<path d="M18459 10823 c-13 -16 -12 -17 4 -4 9 7 17 15 17 17 0 8 -8 3 -21
-13z"/>
<path d="M18340 10650 c12 -8 12 -10 -5 -11 l-20 0 20 -8 c12 -5 23 -4 27 2 9
15 0 27 -20 27 -15 0 -15 -2 -2 -10z"/>
<path d="M7460 10617 c0 -2 21 -18 48 -36 35 -25 40 -26 17 -6 -30 26 -65 49
-65 42z"/>
<path d="M9707 9119 c-20 -44 -33 -82 -42 -119 0 -3 -7 -16 -14 -28 -7 -13
-10 -26 -8 -29 8 -7 37 52 68 141 33 92 30 114 -4 35z"/>
<path d="M16005 9150 c3 -5 8 -10 11 -10 2 0 4 5 4 10 0 6 -5 10 -11 10 -5 0
-7 -4 -4 -10z"/>
<path d="M16000 9086 c0 -12 59 -35 65 -26 6 10 -1 14 -18 11 -4 -1 -17 3 -27
9 -11 6 -20 8 -20 6z"/>
<path d="M15800 9065 c0 -17 24 -75 31 -75 4 0 5 -10 3 -22 -4 -21 -4 -21 5
-3 6 13 4 32 -6 55 -14 36 -33 61 -33 45z"/>
<path d="M16125 9040 c10 -11 20 -20 23 -20 3 0 -3 9 -13 20 -10 11 -20 20
-23 20 -3 0 3 -9 13 -20z"/>
<path d="M15838 8929 c6 -9 10 -18 7 -21 -3 -2 13 -76 34 -164 63 -256 71
-302 106 -662 8 -78 17 -147 20 -152 3 -6 4 -10 1 -10 -3 0 -20 28 -37 63 -17
34 -55 94 -83 132 -29 39 -62 85 -75 103 -12 17 -26 32 -30 32 -4 0 -11 -67
-14 -148 -35 -797 -226 -1611 -543 -2310 -69 -154 -95 -203 -141 -271 -2 -2
-34 10 -73 28 -125 58 -301 50 -445 -19 -62 -30 -135 -84 -135 -101 0 -5 12 1
27 15 66 62 197 108 315 110 36 1 64 -2 62 -6 -3 -4 7 -8 22 -8 35 0 158 -37
208 -62 88 -45 202 -181 256 -308 20 -45 24 -73 25 -150 0 -104 -15 -147 -70
-202 -34 -35 -158 -82 -255 -98 -78 -13 -266 -7 -350 11 -25 5 -51 10 -57 11
-7 1 -13 4 -13 8 0 4 -10 6 -22 5 -27 -2 -99 18 -99 28 1 4 1 12 1 18 0 6 9 9
19 6 20 -5 36 16 32 42 -1 7 2 10 8 7 5 -4 10 2 10 11 0 10 3 43 7 73 12 115
-53 284 -144 372 -64 63 -197 151 -265 177 -112 41 -285 42 -406 1 -31 -10
-57 -17 -58 -16 -2 2 1 140 5 307 5 167 9 526 11 797 1 270 6 538 11 595 5 56
9 120 9 142 -1 39 -1 39 -9 10 -11 -38 -34 -298 -62 -680 -29 -397 -30 -1029
-3 -1165 5 -21 -1 -28 -32 -45 -21 -11 -67 -49 -103 -85 -101 -101 -149 -221
-136 -342 l6 -58 -113 -1 c-61 0 -125 -2 -142 -4 -16 -2 -235 -5 -485 -7 -400
-3 -455 -1 -452 12 2 8 6 47 9 85 13 168 -80 301 -287 412 -196 105 -396 86
-630 -60 -63 -39 -193 -179 -222 -239 -68 -140 -62 -291 16 -376 20 -23 20
-24 1 -21 -11 2 -24 1 -30 -3 -26 -16 -168 -48 -235 -53 -41 -3 -83 -8 -92
-11 -10 -3 -18 0 -18 6 0 6 6 8 13 4 6 -4 5 1 -4 12 -9 10 -14 26 -12 34 4 13
3 13 -6 0 -9 -12 -11 -13 -11 -1 0 18 -11 8 -14 -13 -1 -9 -6 -17 -12 -17 -5
0 -17 -8 -26 -16 -17 -15 -26 -5 -11 11 8 7 9 11 12 37 0 5 6 7 11 4 6 -3 16
-3 23 2 6 4 28 8 47 8 19 0 40 3 46 7 6 4 28 8 48 10 21 1 40 6 43 11 4 7 -32
5 -96 -8 -13 -2 -91 -7 -175 -11 -117 -5 -165 -3 -214 9 -60 14 -62 14 -47 -3
20 -22 77 -33 190 -34 100 -2 123 -9 103 -33 -10 -12 -27 -14 -96 -8 -147 12
-241 55 -284 130 -31 54 -31 184 0 263 58 150 175 291 284 342 35 17 68 30 75
30 7 0 16 7 21 17 5 9 16 14 25 10 8 -3 34 2 58 10 63 22 247 23 320 0 31 -9
91 -39 134 -67 86 -57 113 -61 38 -6 -68 50 -162 94 -223 106 -78 15 -238 12
-304 -5 -139 -36 -198 -72 -322 -195 -66 -66 -102 -111 -132 -168 -39 -73 -72
-186 -66 -225 1 -9 5 -35 9 -57 4 -22 3 -40 -2 -39 -15 4 -43 -13 -43 -25 0
-7 -12 -18 -26 -25 -20 -9 -25 -9 -22 1 3 7 11 13 18 13 7 0 15 6 18 14 3 10
0 12 -12 8 -9 -4 -16 -1 -16 5 0 16 -11 3 -14 -16 -1 -9 -6 -16 -10 -16 -10 1
-46 -45 -46 -59 0 -14 27 -14 35 -1 4 6 10 8 15 5 5 -3 12 0 17 7 4 7 19 14
33 15 31 2 81 12 92 19 4 3 8 0 8 -6 0 -12 -48 -33 -60 -25 -5 3 -10 1 -12 -3
-5 -15 -128 -41 -128 -28 0 7 -3 6 -8 -2 -9 -14 -97 -33 -147 -33 -91 1 -105
3 -105 14 0 8 -3 8 -8 2 -9 -13 -32 -17 -32 -6 0 12 39 21 46 10 3 -5 10 -9
16 -9 6 0 5 7 -3 18 -12 15 -12 16 2 5 9 -7 20 -9 24 -5 5 4 5 2 1 -5 -4 -8 2
-11 21 -10 28 3 30 7 21 62 -3 19 -53 10 -57 -10 -2 -14 -5 -15 -12 -4 -6 10
-9 10 -9 2 0 -9 -16 -13 -46 -13 -33 0 -43 -3 -38 -12 6 -10 4 -10 -8 0 -13
10 -17 10 -21 0 -4 -10 -6 -10 -6 0 -1 8 -16 11 -43 10 -36 -1 -38 -2 -12 -5
18 -2 40 -13 50 -24 17 -18 16 -19 -17 -19 -49 1 -167 35 -189 55 -55 50 -68
212 -27 333 62 180 202 321 395 399 225 91 425 96 607 15 59 -26 72 -29 84
-17 11 11 5 32 -39 136 -29 67 -63 152 -77 188 -13 36 -40 106 -59 154 -175
446 -341 1085 -379 1462 -3 33 -8 71 -10 85 -8 47 -14 115 -21 245 -4 72 -10
121 -14 110 -4 -11 -6 -39 -4 -63 1 -34 -1 -42 -12 -38 -17 7 -18 -16 -2 -32
10 -10 8 -16 -5 -30 -17 -16 -18 -16 -11 3 7 18 6 19 -10 6 -9 -8 -16 -10 -15
-5 3 19 -1 34 -12 34 -5 0 -8 -4 -5 -8 3 -5 6 -34 7 -65 1 -31 6 -57 11 -57 4
0 6 18 4 40 -4 37 -3 39 17 28 20 -10 20 -11 2 -24 -17 -13 -18 -14 -1 -14 16
0 16 -1 2 -16 -9 -8 -13 -21 -9 -27 9 -15 7 -87 -4 -115 -10 -26 16 -254 37
-327 5 -16 21 -86 35 -155 59 -279 140 -546 245 -809 44 -111 85 -210 90 -219
21 -37 150 -314 150 -322 0 -4 4 -10 9 -12 10 -3 72 -140 66 -146 -1 -2 -29
10 -61 27 -76 38 -144 57 -274 76 -124 19 -257 9 -430 -31 -340 -79 -536 -190
-635 -359 -15 -25 -33 -45 -40 -45 -23 0 -176 152 -216 213 -23 35 -42 81 -49
115 -6 31 -15 69 -19 84 -6 17 -5 28 1 30 8 3 7 15 0 38 -25 78 -53 279 -41
301 5 9 13 34 18 55 5 22 14 54 20 72 6 20 6 30 0 26 -6 -3 -8 6 -5 22 4 21 3
25 -6 16 -14 -14 -19 -64 -6 -56 13 8 10 -8 -5 -25 -36 -42 -56 -368 -29 -478
5 -23 7 -45 4 -48 -9 -9 -2 -92 14 -175 19 -91 45 -148 102 -218 23 -29 42
-58 42 -64 0 -14 -3 -11 -50 51 l-34 44 -65 -7 c-36 -3 -124 -15 -194 -25 -71
-11 -197 -27 -280 -36 -84 -8 -169 -17 -189 -20 -34 -5 -37 -3 -41 22 l-4 28
-2 -27 c-1 -29 -10 -31 -186 -42 -278 -18 -355 -19 -355 -5 0 9 -3 10 -8 3 -4
-6 -36 -14 -72 -18 -75 -7 -1165 -8 -1255 -1 -33 2 -134 7 -225 10 -656 23
-1060 97 -1500 277 -133 54 -193 89 -280 163 -140 119 -306 282 -360 353 -100
132 -167 315 -190 525 -11 95 -6 294 10 407 10 73 46 222 61 255 5 11 20 52
35 90 14 39 39 98 55 133 16 35 29 65 29 67 0 10 91 163 143 240 145 213 304
383 458 489 46 31 75 56 65 56 -9 0 -15 4 -11 9 18 30 -54 9 -76 -22 -3 -5
-10 -8 -15 -6 -5 1 -11 -5 -12 -15 -3 -16 1 -15 30 6 18 12 34 26 36 30 4 8
32 -1 32 -11 0 -4 -17 -17 -38 -29 -21 -11 -49 -30 -62 -42 -14 -12 -36 -28
-50 -35 -28 -15 -180 -167 -180 -181 0 -5 -19 -29 -41 -54 -22 -25 -67 -80
-99 -123 -32 -42 -61 -73 -64 -68 -4 5 0 16 8 24 22 22 8 28 -21 10 -13 -9
-22 -22 -19 -29 3 -8 2 -14 -2 -14 -4 0 -15 -14 -24 -31 -12 -20 -22 -28 -30
-23 -10 6 -10 5 -1 -7 10 -12 8 -17 -8 -28 -12 -7 -18 -19 -15 -27 3 -8 1 -14
-4 -14 -5 0 -13 -12 -16 -26 -5 -18 -11 -23 -23 -19 -13 5 -14 4 -3 -6 17 -18
15 -32 -3 -25 -8 3 -15 0 -16 -7 0 -7 -3 -24 -5 -39 -2 -14 1 -30 7 -34 7 -4
9 -3 6 3 -4 6 0 16 8 23 17 14 10 34 -8 24 -7 -3 -2 3 9 13 12 10 25 28 29 41
3 12 11 19 17 16 6 -4 8 -2 4 4 -3 6 5 28 19 49 15 21 33 52 42 70 8 18 19 30
24 28 4 -3 6 4 4 16 -3 17 -2 19 10 9 16 -14 19 -8 -53 -127 -27 -46 -53 -79
-57 -75 -5 4 -5 2 -1 -5 8 -15 -65 -183 -80 -183 -20 0 -48 50 -35 63 8 8 11
5 11 -10 0 -11 7 -27 17 -34 14 -12 16 -12 11 1 -2 8 1 21 9 28 21 22 15 37
-7 17 -12 -11 -20 -14 -21 -7 -3 27 -4 31 -13 39 -5 5 -6 3 -2 -4 4 -7 3 -13
-2 -13 -6 0 -15 -14 -21 -30 -6 -18 -6 -28 -1 -25 6 4 10 2 10 -3 0 -6 -7 -13
-16 -16 -13 -5 -14 -9 -5 -20 9 -11 9 -16 0 -22 -8 -4 -9 -3 -5 4 4 7 2 12 -4
12 -7 0 -9 -8 -5 -20 3 -11 2 -20 -3 -20 -6 0 -13 -7 -16 -16 -6 -15 -4 -15
18 0 16 10 27 12 31 6 4 -6 1 -9 -7 -8 -8 2 -12 -7 -11 -27 2 -28 2 -29 -6 -5
-7 24 -8 24 -16 -10 -7 -29 -9 -32 -15 -15 -6 17 -8 15 -18 -15 -18 -62 -24
-97 -12 -80 8 12 9 8 6 -14 -3 -16 -8 -31 -12 -35 -4 -3 -4 2 -1 12 4 12 3 16
-4 11 -6 -3 -9 -19 -7 -35 3 -16 0 -25 -5 -22 -6 4 -7 -9 -4 -33 4 -21 3 -32
0 -24 -4 8 -12 -25 -20 -74 -10 -71 -10 -93 0 -105 8 -11 9 -13 0 -8 -9 6 -11
-29 -7 -145 6 -235 40 -372 144 -583 92 -187 196 -319 345 -440 270 -218 598
-352 1115 -455 126 -26 576 -76 750 -85 69 -4 130 -8 137 -10 35 -11 541 -20
1088 -19 591 1 1050 15 1380 44 110 9 383 28 483 33 79 5 66 -18 -23 -38 -126
-28 -263 -74 -291 -98 -87 -75 95 -147 562 -222 84 -14 248 -34 366 -45 117
-11 229 -22 248 -25 151 -21 1045 -65 1760 -85 634 -18 2256 4 2890 40 102 6
313 17 470 25 621 33 1129 82 1504 146 391 65 606 129 606 179 0 42 -118 92
-305 130 -149 30 -148 29 -85 51 73 25 216 99 289 148 72 49 143 128 197 218
97 163 138 329 136 563 0 146 -24 360 -51 466 -31 120 -39 147 -40 130 -1 -11
5 -45 13 -75 34 -132 52 -306 44 -414 -1 -15 -3 -15 -18 -2 -15 13 -16 11 -18
-33 -9 -183 -45 -339 -111 -478 -79 -165 -146 -243 -282 -326 -58 -35 -196
-88 -230 -88 -10 0 -20 16 -28 43 -37 123 -147 266 -254 331 -27 15 -105 48
-175 71 -222 75 -379 97 -587 83 -143 -9 -233 -23 -282 -43 l-33 -14 15 27 c9
15 34 56 57 92 255 402 474 1079 559 1730 34 263 36 658 4 734 -15 35 12 8 59
-59 25 -36 41 -65 36 -65 -25 0 -1 -93 57 -220 16 -36 46 -126 67 -200 76
-278 103 -362 91 -285 -3 17 -7 98 -9 180 -14 409 -18 470 -37 523 -10 28 -19
54 -19 57 0 3 0 6 -1 8 -4 14 -9 54 -14 112 -4 39 -11 85 -17 103 -5 18 -7 36
-4 39 3 4 1 12 -5 20 -6 7 -8 13 -5 13 4 0 2 8 -3 19 -6 10 -13 33 -16 51 -3
18 -9 38 -13 44 -3 6 -7 18 -7 26 -4 45 -6 51 -16 45 -7 -5 -9 8 -6 39 2 32 0
49 -10 54 -7 4 -15 21 -17 37 -7 47 -35 128 -47 135 -6 4 -11 21 -11 38 -1 19
-10 39 -22 49 -15 13 -17 14 -8 2z m-12189 -1809 c-6 -16 -15 -30 -19 -30 -5
0 -2 14 6 30 9 17 17 30 19 30 2 0 -1 -13 -6 -30z m-27 -72 c-8 -8 -9 -4 -5
13 4 13 8 18 11 10 2 -7 -1 -18 -6 -23z m12145 -1443 c114 -12 254 -53 363
-106 184 -91 301 -234 345 -422 8 -37 12 -79 9 -94 -8 -32 -34 -83 -34 -67 0
6 -10 10 -22 9 -13 -1 -30 1 -38 5 -8 4 -37 10 -64 13 -27 4 -57 14 -67 23
-11 9 -19 13 -19 8 0 -5 -7 2 -16 14 -10 14 -14 33 -10 47 4 17 0 31 -14 45
-11 11 -22 37 -26 58 -8 53 -122 202 -204 269 -97 79 -294 172 -400 189 -22 4
-37 10 -35 15 6 8 115 5 232 -6z m-167 -40 c210 -56 443 -225 512 -372 47 -99
52 -243 13 -348 -21 -57 -20 -56 -236 -104 -60 -13 -404 -6 -404 9 0 1 -18 3
-41 4 -22 2 -49 8 -61 14 -11 6 -23 9 -26 6 -3 -3 -8 -1 -11 4 -3 5 2 16 11
23 12 10 14 10 9 2 -4 -8 -1 -13 9 -13 9 0 14 4 11 8 -7 12 61 9 71 -3 4 -4 3
-5 -4 -1 -6 3 -14 2 -17 -3 -9 -14 22 -7 37 9 10 10 9 11 -2 5 -10 -5 -12 -4
-7 4 4 6 11 9 16 6 13 -8 20 9 9 25 -5 9 -9 10 -9 3 0 -6 -8 -10 -17 -8 -10 2
-21 4 -25 4 -5 1 -8 6 -8 11 0 6 5 9 12 8 7 -2 13 2 13 7 1 6 7 23 13 38 15
36 15 36 -3 33 -8 -1 -22 -11 -30 -22 -15 -19 -15 -19 -8 1 6 18 5 19 -13 5
-18 -14 -18 -14 -1 6 9 11 17 28 17 38 0 9 4 15 9 11 5 -3 12 -1 15 4 3 4 -4
8 -16 7 -17 -1 -21 5 -23 34 -8 164 -88 302 -259 448 -27 23 -47 44 -45 45 32
23 74 44 119 59 70 23 272 20 370 -7z m-5570 11 c0 -3 -35 -12 -77 -21 -128
-28 -192 -50 -309 -110 -233 -117 -356 -296 -355 -515 0 -50 3 -95 6 -100 3
-5 2 -11 -3 -14 -5 -3 -9 0 -9 7 -1 7 -8 40 -16 74 -8 34 -12 65 -8 69 3 4 0
4 -7 0 -8 -5 -11 -21 -8 -47 5 -47 0 -50 -18 -8 l-13 31 -11 -31 c-6 -17 -16
-31 -21 -31 -6 0 -11 -7 -11 -15 0 -8 -6 -15 -12 -16 -38 -3 -86 4 -112 17
-40 20 -41 13 -3 -23 31 -30 169 -88 181 -76 3 4 6 1 6 -6 0 -18 -63 -6 -125
23 -107 50 -138 107 -118 215 48 257 307 453 713 541 130 28 330 50 330 36z
m4081 -110 c174 -54 295 -172 359 -347 22 -60 26 -157 9 -210 -28 -83 -103
-144 -224 -182 -61 -19 -91 -22 -230 -21 -159 1 -294 17 -307 38 -4 6 -17 11
-30 11 -68 1 -182 95 -218 178 -19 46 -35 131 -23 124 5 -3 17 -28 27 -55 11
-28 24 -48 29 -45 6 3 8 -7 5 -25 -2 -17 -1 -29 4 -26 4 3 12 -6 17 -19 5 -13
16 -24 25 -24 19 0 20 8 4 26 -11 11 -9 11 9 0 12 -7 19 -19 15 -28 -4 -11 -1
-13 14 -8 16 6 17 5 4 -6 -17 -14 -24 -37 -12 -37 4 0 14 6 21 13 10 10 11 8
5 -7 -5 -13 -4 -17 3 -13 6 4 14 1 17 -5 3 -7 3 -3 0 10 -3 13 -1 22 6 22 6 0
8 -4 5 -10 -3 -5 3 -10 15 -10 13 0 19 -4 14 -11 -5 -8 -1 -8 14 0 26 14 42
14 22 0 -11 -7 -7 -9 18 -5 20 3 32 0 32 -7 0 -9 2 -9 8 -1 4 6 16 9 27 7 11
-2 25 -5 32 -5 6 -1 9 -8 5 -16 -4 -11 -2 -13 9 -6 25 15 42 14 28 -2 -6 -7
-15 -11 -20 -8 -5 3 -9 0 -9 -5 0 -6 8 -11 18 -12 9 0 32 -2 49 -3 18 -2 31 0
28 4 -5 8 40 5 105 -7 56 -11 149 0 240 27 90 27 99 41 12 20 -78 -19 -209
-17 -347 5 -283 47 -375 95 -463 243 -67 110 -23 220 137 341 95 72 105 78
194 102 83 22 219 20 298 -5z m-2317 -6 c111 -35 272 -169 317 -265 24 -51 24
-123 2 -155 -52 -72 -162 -168 -238 -207 -134 -68 -189 -78 -430 -78 -156 0
-216 3 -233 13 -13 8 -26 12 -28 9 -3 -2 11 -12 31 -21 41 -20 125 -29 282
-30 105 -1 143 -9 91 -19 -17 -3 -14 -5 9 -6 27 -1 31 2 27 17 -5 15 -4 15 5
1 8 -13 20 -14 68 -8 32 5 67 11 78 14 11 2 36 8 55 13 20 5 47 15 60 23 14 7
31 12 39 10 8 -1 10 2 5 10 -4 7 -3 10 4 6 10 -7 92 31 92 42 0 4 16 24 36 46
l36 40 -32 -48 c-67 -102 -198 -161 -387 -176 -59 -4 -127 -7 -153 -5 -25 1
-85 5 -135 8 -129 8 -186 27 -245 84 -53 52 -70 95 -70 177 0 169 126 373 278
449 43 21 148 58 197 69 56 13 177 6 239 -13z m3657 -563 c-10 -9 -11 -8 -5 6
3 10 9 15 12 12 3 -3 0 -11 -7 -18z m-3432 -43 c-7 -8 -26 -25 -43 -37 l-31
-21 35 40 c19 23 39 39 43 36 4 -2 3 -10 -4 -18z m3401 -8 c0 -2 -7 -7 -16
-10 -8 -3 -12 -2 -9 4 6 10 25 14 25 6z m-6120 -67 c0 -11 -4 -18 -10 -14 -5
3 -7 12 -3 20 7 21 13 19 13 -6z m749 -22 c0 -8 -2 -8 -6 1 -4 10 -8 8 -18 -5
-7 -10 -17 -14 -22 -10 -9 10 26 39 38 31 5 -3 9 -11 8 -17z m-769 -9 c0 -4
-6 -8 -14 -8 -8 0 -17 4 -20 8 -2 4 4 8 15 8 10 0 19 -4 19 -8z m35 -8 c-3 -5
-10 -10 -16 -10 -5 0 -9 5 -9 10 0 6 7 10 16 10 8 0 12 -4 9 -10z m1378 -46
c-3 -8 -11 -14 -19 -14 -16 0 -19 16 -4 25 6 4 7 12 3 18 -4 7 -1 7 9 -1 9 -8
14 -20 11 -28z m-1013 5 c0 -4 -9 -7 -19 -6 -11 0 -18 4 -16 7 6 9 35 8 35 -1z"/>
<path d="M15436 4943 c-6 -14 -5 -15 5 -6 7 7 10 15 7 18 -3 3 -9 -2 -12 -12z"/>
<path d="M15486 4942 c2 -7 -1 -25 -7 -40 -6 -15 -10 -29 -11 -32 0 -3 -4 -11
-10 -18 -8 -9 -7 -11 6 -6 9 3 16 16 17 28 1 21 1 21 7 1 6 -17 15 -21 45 -20
23 1 36 -3 34 -9 -2 -6 -18 -10 -35 -8 -18 1 -31 -1 -30 -5 1 -5 -3 -19 -10
-33 -12 -23 -12 -24 2 -6 16 20 16 20 17 0 0 -18 1 -18 8 1 5 11 6 25 4 30 -2
6 3 1 12 -10 9 -12 11 -21 5 -23 -5 -2 -10 -8 -10 -14 0 -7 5 -6 14 2 8 6 12
19 9 27 -4 10 -2 14 4 10 16 -10 28 13 28 51 -1 36 10 43 18 11 7 -26 27 -15
26 14 -1 20 -2 20 -8 -3 l-7 -25 -6 24 c-5 16 -12 22 -22 18 -8 -3 -17 -1 -20
6 -3 7 -4 3 -3 -8 1 -11 6 -23 10 -26 5 -3 2 -9 -6 -12 -11 -4 -15 0 -12 14 3
14 -1 19 -13 17 -11 -2 -17 3 -16 15 1 9 -5 17 -13 17 -8 0 -11 5 -7 12 4 6 3
8 -4 4 -5 -3 -12 -3 -15 1 -2 5 -2 2 -1 -5z m23 -29 c-1 -5 0 -10 1 -13 7 -19
7 -39 -1 -34 -5 3 -7 9 -4 14 3 5 1 11 -5 15 -6 4 -8 11 -5 16 7 11 15 12 14
2z"/>
<path d="M15530 4940 c8 -5 22 -9 30 -9 10 0 8 3 -5 9 -27 12 -43 12 -25 0z"/>
<path d="M16007 4839 c7 -7 15 -10 18 -7 3 3 -2 9 -12 12 -14 6 -15 5 -6 -5z"/>
<path d="M15724 4829 c-3 -5 -9 -7 -14 -4 -4 3 -13 -2 -19 -9 -9 -10 -9 -16
-1 -21 6 -4 9 -2 8 3 -2 6 0 9 3 9 3 -1 12 3 20 9 12 9 33 11 42 4 7 -5 38 -7
32 -2 -4 4 -11 8 -16 8 -5 1 -10 2 -11 4 -10 7 -39 7 -44 -1z"/>
<path d="M16067 4819 c-19 -22 -9 -25 18 -6 10 8 14 17 8 20 -5 3 -17 -3 -26
-14z"/>
<path d="M13550 4851 c0 -5 6 -14 13 -20 10 -8 14 -7 14 4 0 8 -6 16 -14 19
-7 3 -13 2 -13 -3z"/>
<path d="M13788 4773 c6 -2 18 -2 25 0 6 3 1 5 -13 5 -14 0 -19 -2 -12 -5z"/>
<path d="M13768 4753 c7 -3 16 -2 19 1 4 3 -2 6 -13 5 -11 0 -14 -3 -6 -6z"/>
<path d="M13810 4750 c-13 -8 -12 -10 3 -10 9 0 17 5 17 10 0 12 -1 12 -20 0z"/>
<path d="M16080 8901 c5 -11 15 -23 21 -27 6 -3 3 5 -6 20 -20 30 -30 35 -15
7z"/>
<path d="M16140 8804 c35 -58 55 -76 25 -22 -15 26 -32 51 -38 55 -6 3 0 -11
13 -33z"/>
<path d="M16140 8746 c0 -2 7 -9 15 -16 13 -11 14 -10 9 4 -5 14 -24 23 -24
12z"/>
<path d="M16184 8718 c-4 -6 -3 -8 3 -5 6 4 14 0 17 -9 11 -30 6 -35 -16 -14
-12 11 -23 18 -25 16 -8 -8 50 -105 60 -99 5 3 7 1 4 -4 -6 -10 39 -111 61
-138 4 -5 9 -13 10 -17 3 -10 35 -82 61 -138 11 -25 21 -37 21 -27 0 11 4 15
12 11 6 -4 9 -3 7 2 -3 5 -11 21 -18 36 -8 15 -17 25 -21 23 -4 -2 -5 7 -2 20
2 15 0 25 -7 25 -7 0 -10 4 -7 9 3 4 -1 17 -9 27 -8 10 -15 26 -15 35 0 8 -8
24 -18 35 -10 11 -16 26 -14 33 3 8 0 11 -7 7 -6 -4 -11 -1 -11 9 0 9 -7 26
-15 38 -8 12 -13 31 -13 43 2 17 -37 94 -47 94 -2 0 -7 -5 -11 -12z m49 -63
c4 -8 2 -17 -3 -20 -6 -4 -10 3 -10 14 0 25 6 27 13 6z m145 -346 c-3 -8 -7
-3 -11 10 -4 17 -3 21 5 13 5 -5 8 -16 6 -23z"/>
<path d="M4748 8283 c6 -2 18 -2 25 0 6 3 1 5 -13 5 -14 0 -19 -2 -12 -5z"/>
<path d="M4820 8275 c6 -7 22 -11 37 -9 15 1 34 -3 42 -9 12 -9 13 -9 7 1 -9
15 6 16 21 1 6 -6 17 -12 24 -13 33 -7 91 -38 124 -67 44 -39 46 -30 3 12 -48
47 -147 90 -213 94 -43 2 -53 0 -45 -10z"/>
<path d="M9462 8230 c0 -14 2 -19 5 -12 2 6 2 18 0 25 -3 6 -5 1 -5 -13z"/>
<path d="M9853 8185 c0 -27 2 -38 4 -22 2 15 2 37 0 50 -2 12 -4 0 -4 -28z"/>
<path d="M9450 8178 c0 -19 2 -20 10 -8 13 19 13 30 0 30 -5 0 -10 -10 -10
-22z"/>
<path d="M16431 8184 c0 -11 3 -14 6 -6 3 7 2 16 -1 19 -3 4 -6 -2 -5 -13z"/>
<path d="M4515 8150 c-3 -6 1 -7 9 -4 18 7 21 14 7 14 -6 0 -13 -4 -16 -10z"/>
<path d="M4423 8140 c-13 -5 -23 -11 -23 -14 0 -7 40 6 46 15 6 10 6 10 -23
-1z"/>
<path d="M9862 8060 c0 -14 2 -19 5 -12 2 6 2 18 0 25 -3 6 -5 1 -5 -13z"/>
<path d="M9435 8050 c-7 -11 -3 -80 5 -85 3 -2 5 19 5 46 0 52 -1 54 -10 39z"/>
<path d="M4215 8006 c-16 -13 -34 -25 -40 -26 -5 -1 -9 -6 -7 -11 1 -5 -2 -9
-6 -9 -11 0 -52 -35 -52 -44 0 -3 7 -6 15 -6 8 0 15 7 15 16 0 8 4 13 9 10 4
-3 25 11 45 32 21 20 43 37 49 37 5 0 12 6 15 13 6 19 -10 14 -43 -12z"/>
<path d="M9836 7928 c3 -4 -1 -8 -8 -8 -8 0 -9 -3 -3 -8 13 -9 19 -46 7 -38
-6 4 -8 -3 -4 -16 4 -16 2 -19 -9 -13 -11 7 -12 6 -3 -6 13 -16 8 -67 -9 -88
-9 -12 -9 -13 1 -7 8 5 12 1 12 -12 0 -10 7 -19 15 -19 11 0 12 4 5 11 -13 13
-13 63 0 71 6 3 7 -1 4 -9 -3 -9 -2 -16 3 -16 11 0 10 56 0 66 -4 4 -7 14 -6
23 0 12 3 11 10 -4 7 -15 8 -10 4 18 -6 37 9 53 18 20 4 -14 5 -12 6 5 1 14
-5 22 -15 22 -8 0 -13 4 -10 8 3 5 -1 9 -9 9 -8 0 -12 -4 -9 -9z"/>
<path d="M16517 7913 c-6 -31 6 -52 18 -32 5 8 4 10 -3 5 -8 -5 -10 2 -6 24 4
16 4 30 1 30 -2 0 -7 -12 -10 -27z"/>
<path d="M4057 7869 c-21 -23 -36 -44 -33 -47 7 -6 -36 -38 -46 -35 -4 2 -5
-3 -2 -10 2 -7 -11 -30 -31 -51 -37 -41 -41 -51 -25 -61 5 -3 7 0 4 8 -3 9 8
23 30 36 19 12 39 35 45 51 5 17 17 30 25 30 9 0 16 3 16 8 0 4 18 27 40 51
35 38 43 61 22 61 -4 0 -24 -19 -45 -41z"/>
<path d="M9431 7905 c-7 -29 -6 -84 2 -76 4 4 7 26 4 47 -2 22 -5 35 -6 29z"/>
<path d="M16539 7858 c-5 -18 -6 -38 -1 -34 7 8 12 36 6 36 -2 0 -4 -1 -5 -2z"/>
<path d="M5281 7804 c0 -11 3 -14 6 -6 3 7 2 16 -1 19 -3 4 -6 -2 -5 -13z"/>
<path d="M9406 7733 c-4 -32 -9 -67 -12 -78 -4 -17 -4 -18 6 -3 12 20 29 138
19 138 -3 0 -10 -26 -13 -57z"/>
<path d="M3892 7668 c2 -10 -10 -30 -27 -44 l-30 -26 32 22 c40 26 44 32 32
50 -8 12 -9 12 -7 -2z"/>
<path d="M5280 7652 c0 -15 -4 -42 -10 -61 -6 -21 -6 -40 0 -51 6 -11 5 -22
-3 -30 -10 -12 -9 -12 4 -2 12 9 17 32 18 92 1 44 0 80 -3 80 -4 0 -6 -12 -6
-28z"/>
<path d="M3846 7653 c-6 -14 -5 -15 5 -6 7 7 10 15 7 18 -3 3 -9 -2 -12 -12z"/>
<path d="M9378 7605 c-3 -13 -2 -22 2 -20 11 7 20 45 10 45 -4 0 -10 -11 -12
-25z"/>
<path d="M3749 7513 c-22 -46 -22 -50 1 -15 13 18 20 35 18 37 -3 3 -11 -7
-19 -22z"/>
<path d="M9355 7528 c-2 -7 -17 -51 -34 -98 -17 -46 -29 -86 -27 -88 4 -3 51
115 65 166 9 30 5 47 -4 20z"/>
<path d="M3701 7424 c-12 -20 -20 -38 -18 -40 2 -2 14 14 26 36 28 50 21 53
-8 4z"/>
<path d="M5208 7424 c-10 -21 -16 -40 -13 -42 6 -6 37 58 33 69 -2 6 -11 -7
-20 -27z"/>
<path d="M5230 7378 c0 -19 2 -20 10 -8 13 19 13 30 0 30 -5 0 -10 -10 -10
-22z"/>
<path d="M11875 7150 c4 -140 8 -261 11 -268 2 -7 4 -164 5 -350 4 -546 23
-1058 42 -1081 20 -24 26 65 33 459 7 380 -3 686 -32 970 -29 298 -54 514 -60
519 -2 3 -2 -109 1 -249z"/>
<path d="M5209 7373 c-1 -5 -1 -16 0 -25 1 -10 -3 -18 -8 -18 -6 0 -11 7 -11
15 0 8 -4 15 -10 15 -12 0 -1 -32 17 -47 9 -7 11 -13 4 -18 -6 -3 -11 -1 -11
4 0 6 -5 11 -12 11 -9 0 -9 -3 0 -12 16 -16 15 -35 -1 -35 -9 0 -13 12 -12 34
l1 33 -24 -27 c-92 -107 -220 -350 -273 -517 -19 -58 -38 -106 -42 -106 -5 0
-58 24 -118 54 -60 30 -109 52 -109 50 0 -6 45 -89 75 -139 14 -22 25 -48 25
-57 0 -9 15 -36 33 -60 57 -75 132 -190 177 -271 23 -43 46 -75 49 -70 13 20
44 23 70 7 24 -16 23 -15 -6 23 -18 22 -39 46 -48 53 -21 18 -20 44 3 35 24
-10 102 -19 102 -11 0 12 -69 112 -91 132 -13 11 -76 56 -139 99 -122 83 -157
110 -171 136 -5 9 22 -3 59 -27 68 -46 95 -56 195 -79 l57 -13 0 80 c0 150 42
286 169 554 64 133 76 170 61 179 -6 4 -8 11 -5 16 4 5 4 9 1 9 -3 0 -7 -3 -7
-7z m-49 -86 c0 -2 -10 -12 -21 -23 -22 -19 -22 -19 -8 4 12 19 29 30 29 19z"/>
<path d="M3656 7333 c-6 -14 -5 -15 5 -6 7 7 10 15 7 18 -3 3 -9 -2 -12 -12z"/>
<path d="M3636 7291 c-4 -6 -2 -19 3 -29 6 -11 7 -22 4 -26 -3 -3 -1 -6 5 -6
19 0 22 17 8 45 -8 15 -17 22 -20 16z"/>
<path d="M9257 7263 c-14 -23 -37 -86 -28 -78 12 12 43 85 37 85 -3 0 -7 -3
-9 -7z"/>
<path d="M9200 7140 c-6 -11 -8 -20 -6 -20 3 0 10 9 16 20 6 11 8 20 6 20 -3
0 -10 -9 -16 -20z"/>
<path d="M16917 7110 c3 -10 11 -24 19 -31 10 -8 10 -3 -2 20 -18 35 -24 40
-17 11z"/>
<path d="M9135 7019 c-4 -6 -5 -12 -2 -15 2 -3 7 2 10 11 7 17 1 20 -8 4z"/>
<path d="M9036 6825 c-9 -26 -7 -32 5 -12 6 10 9 21 6 23 -2 3 -7 -2 -11 -11z"/>
<path d="M17064 6765 c3 -9 13 -41 22 -71 9 -31 18 -53 21 -50 6 6 -36 136
-44 136 -3 0 -2 -7 1 -15z"/>
<path d="M8908 6588 c-31 -60 -45 -90 -84 -175 -9 -21 -19 -41 -21 -45 -2 -5
1 -8 6 -8 6 0 11 6 11 13 0 6 23 57 51 112 56 111 80 165 74 165 -3 0 -19 -28
-37 -62z"/>
<path d="M17147 6239 c4 -13 8 -18 11 -10 2 7 -1 18 -6 23 -8 8 -9 4 -5 -13z"/>
<path d="M4042 6165 c0 -16 2 -22 5 -12 2 9 2 23 0 30 -3 6 -5 -1 -5 -18z"/>
<path d="M4975 6141 c9 -18 51 -67 92 -110 42 -42 69 -67 59 -55 -17 21 -12
59 6 48 18 -11 -10 30 -40 59 -21 20 -28 34 -24 52 4 21 1 24 -23 19 -20 -3
-25 -1 -19 8 4 7 -1 5 -12 -4 -19 -17 -21 -17 -38 0 -17 16 -18 16 -1 -17z
m93 -44 c6 -7 13 -25 16 -40 5 -27 5 -27 -19 -9 -27 19 -38 39 -29 53 7 13 20
11 32 -4z"/>
<path d="M5080 6134 c1 -12 38 -53 70 -79 l25 -20 -21 25 c-49 58 -74 82 -74
74z"/>
<path d="M8550 6110 c-8 -5 -10 -10 -5 -10 6 0 17 5 25 10 8 5 11 10 5 10 -5
0 -17 -5 -25 -10z"/>
<path d="M8650 6107 c0 -10 -4 -16 -8 -13 -10 6 -9 -40 1 -50 4 -5 5 -1 1 9
-3 9 -2 17 4 17 6 0 12 -6 15 -12 4 -10 7 -10 18 0 11 10 11 12 -1 12 -13 0
-13 2 -1 9 16 10 24 41 11 41 -5 0 -12 -5 -16 -11 -4 -8 -9 -7 -15 2 -7 11 -9
10 -9 -4z"/>
<path d="M8605 6080 c-3 -5 -1 -10 4 -10 6 0 11 5 11 10 0 6 -2 10 -4 10 -3 0
-8 -4 -11 -10z"/>
<path d="M8533 6070 c10 -6 14 -16 10 -23 -4 -7 1 -5 12 3 10 8 19 13 21 10 1
-3 6 -2 10 3 4 4 -2 7 -14 7 -11 0 -29 3 -39 6 -17 5 -17 5 0 -6z"/>
<path d="M8471 6049 c-14 -5 -30 -8 -36 -5 -6 2 -11 -5 -11 -15 0 -13 4 -15
12 -8 7 5 20 11 30 14 11 2 28 7 38 11 15 6 17 4 11 -6 -5 -9 -4 -11 4 -6 13
9 5 26 -12 25 -7 0 -23 -5 -36 -10z"/>
<path d="M8610 6040 c0 -5 5 -10 11 -10 5 0 7 5 4 10 -3 6 -8 10 -11 10 -2 0
-4 -4 -4 -10z"/>
<path d="M5183 6024 c0 -7 3 -12 6 -11 3 1 26 -12 51 -28 50 -33 127 -72 180
-91 60 -23 43 -8 -26 21 -37 16 -99 49 -139 75 -42 28 -72 42 -72 34z"/>
<path d="M8399 6035 c-3 -2 -20 -6 -38 -7 -18 -1 -35 -7 -38 -12 -4 -5 -1 -6
7 -1 10 6 12 4 7 -8 -4 -11 -1 -17 9 -17 8 0 12 5 9 10 -3 6 -1 10 4 10 6 0
11 -5 11 -10 0 -17 33 5 36 24 2 17 1 19 -7 11z"/>
<path d="M8168 6013 c7 -3 16 -2 19 1 4 3 -2 6 -13 5 -11 0 -14 -3 -6 -6z"/>
<path d="M8290 6010 c-13 -8 -12 -10 3 -10 9 0 17 5 17 10 0 12 -1 12 -20 0z"/>
<path d="M8128 6003 c7 -3 16 -2 19 1 4 3 -2 6 -13 5 -11 0 -14 -3 -6 -6z"/>
<path d="M5175 5990 c-9 -15 4 -30 26 -30 10 0 19 -4 19 -9 0 -5 12 -11 28
-14 l27 -5 -25 17 c-13 9 -31 24 -39 34 -18 19 -27 21 -36 7z"/>
<path d="M8183 5967 c0 -8 6 -14 14 -14 9 0 10 4 2 14 -6 7 -12 13 -14 13 -1
0 -2 -6 -2 -13z"/>
<path d="M8148 5943 c7 -3 16 -2 19 1 4 3 -2 6 -13 5 -11 0 -14 -3 -6 -6z"/>
<path d="M5180 5926 c0 -2 7 -7 16 -10 8 -3 12 -2 9 4 -6 10 -25 14 -25 6z"/>
<path d="M7974 5899 c-5 -8 76 -3 84 6 3 3 -14 4 -37 3 -23 -1 -44 -5 -47 -9z"/>
<path d="M5490 5870 c8 -5 22 -9 30 -9 10 0 8 3 -5 9 -27 12 -43 12 -25 0z"/>
<path d="M5578 5843 c7 -3 16 -2 19 1 4 3 -2 6 -13 5 -11 0 -14 -3 -6 -6z"/>
<path d="M7186 5752 c-3 -5 1 -9 9 -9 8 0 12 4 9 9 -3 4 -7 8 -9 8 -2 0 -6 -4
-9 -8z"/>
<path d="M7019 5740 c-7 -5 -16 -7 -20 -4 -4 2 -10 0 -13 -5 -3 -5 9 -7 27 -4
17 2 38 4 45 5 6 1 10 4 7 7 -9 9 -32 9 -46 1z"/>
<path d="M14778 5493 c7 -3 16 -2 19 1 4 3 -2 6 -13 5 -11 0 -14 -3 -6 -6z"/>
<path d="M7992 5165 c0 -16 2 -22 5 -12 2 9 2 23 0 30 -3 6 -5 -1 -5 -18z"/>
<path d="M10025 4877 c-38 -13 -53 -23 -41 -25 19 -4 103 24 121 39 15 14 -15
9 -80 -14z"/>
<path d="M10075 4850 c3 -5 8 -10 11 -10 2 0 4 5 4 10 0 6 -5 10 -11 10 -5 0
-7 -4 -4 -10z"/>
<path d="M14587 4847 c4 -7 8 -18 8 -26 0 -17 25 -28 25 -11 0 6 -5 8 -12 4
-9 -5 -9 -2 1 9 14 18 22 22 20 10 -4 -22 3 -32 16 -27 10 4 15 0 16 -12 0
-14 2 -15 6 -5 3 8 -3 21 -13 28 -17 13 -16 14 16 9 201 -32 402 -50 455 -40
43 7 27 9 -105 15 -128 6 -299 28 -418 53 -16 3 -20 1 -15 -7z"/>
<path d="M9460 4827 c0 -9 11 -29 24 -44 21 -24 27 -26 38 -14 11 12 10 13 -4
8 -13 -5 -19 0 -24 18 -8 30 -34 55 -34 32z"/>
<path d="M9875 4830 c-3 -6 1 -7 9 -4 18 7 21 14 7 14 -6 0 -13 -4 -16 -10z"/>
<path d="M14541 4826 c-6 -8 -10 -20 -9 -27 2 -8 -4 -13 -12 -11 -8 2 -11 0
-7 -4 11 -11 38 -14 31 -3 -3 5 0 9 5 9 6 0 11 -6 11 -12 1 -18 24 23 25 45 2
21 -28 23 -44 3z m34 -18 c5 4 5 1 1 -6 -6 -10 -11 -10 -22 -1 -8 6 -14 14
-14 16 0 3 6 0 13 -6 8 -6 18 -7 22 -3z"/>
<path d="M10926 4805 c-26 -7 -49 -12 -52 -13 -3 0 -9 -4 -12 -8 -4 -4 4 -4
18 -1 14 3 44 9 68 13 23 4 44 10 47 14 6 10 -16 8 -69 -5z"/>
<path d="M15190 4810 c-9 -6 -10 -10 -3 -10 6 0 15 5 18 10 8 12 4 12 -15 0z"/>
<path d="M9505 4800 c3 -5 10 -10 16 -10 5 0 9 5 9 10 0 6 -7 10 -16 10 -8 0
-12 -4 -9 -10z"/>
<path d="M9755 4800 c-16 -7 -17 -9 -3 -9 9 -1 20 4 23 9 7 11 7 11 -20 0z"/>
<path d="M11010 4791 c-16 -30 -12 -49 5 -27 14 18 20 15 16 -8 -1 -5 5 -4 13
3 18 15 12 31 -10 31 -8 0 -12 5 -9 10 3 6 4 10 1 10 -3 0 -10 -9 -16 -19z"/>
<path d="M9665 4792 c-11 -2 -24 -9 -30 -14 -7 -7 -5 -9 5 -6 8 3 23 1 34 -4
14 -8 17 -7 11 2 -6 9 -1 12 17 8 14 -3 25 0 25 6 0 12 -29 15 -62 8z"/>
<path d="M14808 4787 c7 -8 10 -16 7 -19 -3 -2 1 -5 9 -5 18 0 10 24 -11 31
-12 5 -13 4 -5 -7z"/>
<path d="M10975 4780 c-4 -6 -10 -8 -14 -6 -4 3 -17 -3 -29 -14 -12 -12 -23
-16 -27 -10 -4 6 -12 4 -22 -5 -14 -14 -17 -14 -33 0 -17 16 -18 15 -16 -2 2
-13 11 -18 35 -17 17 1 39 5 49 10 9 4 23 6 29 5 7 -1 10 4 7 13 -4 11 0 13
14 9 12 -3 22 1 25 11 7 18 -8 22 -18 6z"/>
<path d="M14857 4776 c-4 -10 -1 -13 8 -9 8 3 12 9 9 14 -7 12 -11 11 -17 -5z"/>
<path d="M9936 4768 c3 -4 9 -8 15 -8 5 0 9 4 9 8 0 5 -7 9 -15 9 -8 0 -12 -4
-9 -9z"/>
<path d="M10857 4759 c7 -7 15 -10 18 -7 3 3 -2 9 -12 12 -14 6 -15 5 -6 -5z"/>
<path d="M14686 4762 c-3 -5 1 -9 9 -9 8 0 12 4 9 9 -3 4 -7 8 -9 8 -2 0 -6
-4 -9 -8z"/>
<path d="M10759 4756 c-1 -1 -3 -10 -4 -21 -1 -14 4 -21 17 -22 14 -1 18 3 14
13 -4 9 3 18 17 23 19 8 18 9 -10 9 -18 -1 -34 -1 -34 -2z m18 -21 c0 -8 -4
-12 -9 -9 -4 3 -8 9 -8 15 0 5 4 9 8 9 5 0 9 -7 9 -15z"/>
<path d="M14985 4750 c-4 -6 -12 -7 -18 -4 -7 4 -8 3 -4 -1 13 -15 34 -14 34
1 0 17 -4 18 -12 4z"/>
<path d="M9947 4737 c3 -4 -1 -8 -8 -6 -29 3 -50 -1 -44 -10 3 -6 18 -6 35 -1
17 5 34 9 37 9 4 0 9 4 11 10 2 5 -6 9 -17 8 -11 0 -17 -5 -14 -10z"/>
<path d="M10710 4734 c0 -8 6 -11 15 -8 8 4 15 9 15 13 0 4 -7 8 -15 8 -8 0
-15 -6 -15 -13z"/>
<path d="M10808 4713 c7 -3 16 -2 19 1 4 3 -2 6 -13 5 -11 0 -14 -3 -6 -6z"/>
</g>
</svg>
